<svg width="21" height="20" viewBox="0 0 21 20" fill="none" xmlns="http://www.w3.org/2000/svg">
<g clip-path="url(#clip0_290_1688)">
<path d="M17.8878 11.306C17.8878 16.1076 13.9955 20 9.19384 20C4.39236 20 0.5 16.1076 0.5 11.306C0.5 6.50454 4.39236 2.61218 9.19384 2.61218C13.9955 2.61218 17.8878 6.50454 17.8878 11.306Z" fill="url(#paint0_radial_290_1688)"/>
<path d="M14.7904 4.65369C14.1361 5.1026 13.3596 5.75476 12.5788 6.5357C12.0876 7.02688 11.6775 7.48617 11.3499 7.90106V7.90121C11.3488 7.90258 11.3479 7.9038 11.347 7.90503C11.3201 7.93905 11.2942 7.97247 11.2687 8.00573C11.195 8.10156 11.1257 8.19494 11.0612 8.28543C11.049 8.30267 11.0372 8.31945 11.0255 8.33639C11.0121 8.35546 10.9989 8.37438 10.9861 8.39315C10.9744 8.40994 10.9628 8.42687 10.9515 8.44351C10.9321 8.47235 10.9133 8.50073 10.8949 8.52896C10.8839 8.54559 10.8734 8.56207 10.8628 8.57855C10.8506 8.59732 10.8389 8.61608 10.8271 8.63485C10.8132 8.65698 10.7997 8.6791 10.7862 8.70092C10.7745 8.72045 10.7627 8.73983 10.7514 8.75906C10.7424 8.77432 10.7334 8.78958 10.7247 8.80453C10.7108 8.82879 10.6973 8.85275 10.6841 8.8764C10.6754 8.89196 10.6672 8.90722 10.659 8.92248C10.6494 8.94049 10.6399 8.95834 10.6307 8.97604C10.624 8.98886 10.6172 9.00183 10.6107 9.01464C10.5979 9.04012 10.5857 9.06515 10.574 9.08972C10.5683 9.10177 10.563 9.11352 10.5575 9.12527C10.549 9.14388 10.5409 9.16219 10.5329 9.18035C10.5277 9.1921 10.5226 9.204 10.5177 9.2156C10.5085 9.23757 10.4998 9.25924 10.4917 9.2806C10.4878 9.29067 10.4839 9.30074 10.4803 9.31066C10.4716 9.33416 10.4633 9.35735 10.456 9.38009C10.4536 9.38711 10.4518 9.39398 10.4495 9.40084C10.4437 9.41946 10.4383 9.43762 10.4334 9.45547C10.4313 9.46325 10.429 9.47119 10.427 9.47881C10.4214 9.50063 10.4165 9.522 10.4121 9.5429C10.4107 9.54946 10.4096 9.55602 10.4084 9.56243C10.4073 9.56793 10.4063 9.57342 10.4054 9.57891L9.03986 11.0923C8.90467 11.245 8.98615 11.4345 9.12592 11.503L15.2073 17.5846C16.8591 16.0021 17.8878 13.7743 17.8878 11.3061C17.8878 8.63653 16.6842 6.24853 14.7904 4.65369Z" fill="url(#paint1_linear_290_1688)"/>
<path d="M10.8909 11.306C10.8909 12.2433 10.131 13.0032 9.19366 13.0032C8.25647 13.0032 7.49658 12.2433 7.49658 11.306C7.49658 10.3688 8.25647 9.60889 9.19366 9.60889C10.131 9.60889 10.8909 10.3688 10.8909 11.306Z" fill="url(#paint2_radial_290_1688)"/>
<path d="M9.19384 2.61218C4.39236 2.61218 0.5 6.50454 0.5 11.306C0.5 16.1076 4.39236 20 9.19384 20C13.9955 20 17.8878 16.1076 17.8878 11.306C17.8878 6.50454 13.9955 2.61218 9.19384 2.61218ZM9.19384 18.3833C5.2853 18.3833 2.11667 15.2147 2.11667 11.306C2.11667 7.39749 5.2853 4.22885 9.19384 4.22885C13.1025 4.22885 16.2712 7.39749 16.2712 11.306C16.2712 15.2147 13.1025 18.3833 9.19384 18.3833Z" fill="url(#paint3_radial_290_1688)"/>
<path d="M9.19378 5.90466C6.21069 5.90466 3.79248 8.32287 3.79248 11.306C3.79248 14.2891 6.21069 16.7074 9.19378 16.7074C12.177 16.7074 14.5952 14.2892 14.5952 11.306C14.5952 8.32287 12.177 5.90466 9.19378 5.90466ZM9.19378 15.0573C7.1221 15.0573 5.44256 13.3778 5.44256 11.306C5.44256 9.23428 7.1221 7.55475 9.19378 7.55475C11.2656 7.55475 12.9451 9.23428 12.9451 11.306C12.9451 13.3778 11.2656 15.0573 9.19378 15.0573Z" fill="url(#paint4_radial_290_1688)"/>
<path d="M10.8909 11.306C10.8909 11.8425 10.6421 12.3204 10.254 12.631L9.12573 11.5028C8.98611 11.4344 8.90463 11.2449 9.03998 11.0922L10.1262 9.88782C10.5869 10.1912 10.8909 10.7132 10.8909 11.306Z" fill="url(#paint5_linear_290_1688)"/>
<path d="M17.8871 11.1935C17.8867 11.1734 17.8867 11.1529 17.8859 11.1328C17.8856 11.1076 17.8851 11.0826 17.8844 11.0577V11.0535C17.8833 11.0176 17.8821 10.982 17.8805 10.946C17.8801 10.9312 17.8793 10.9169 17.8786 10.9022C17.8778 10.8798 17.8767 10.8578 17.8751 10.8354C17.874 10.806 17.872 10.777 17.8702 10.7475C17.8677 10.7109 17.8654 10.6737 17.8624 10.6369C17.8604 10.6076 17.8578 10.5781 17.8554 10.5487C17.8526 10.5167 17.8496 10.4849 17.8465 10.4532C17.8442 10.4289 17.8418 10.4042 17.8387 10.3798C17.8365 10.3557 17.8342 10.3317 17.8311 10.3078C17.814 10.1562 17.7928 10.0062 17.7679 9.85763C17.7641 9.8352 17.7603 9.81323 17.7563 9.7908C17.751 9.76058 17.7455 9.73083 17.7402 9.70107C17.7344 9.67086 17.7286 9.6408 17.7223 9.61059C17.7142 9.56756 17.7054 9.52468 17.6961 9.4818C17.6878 9.44381 17.6797 9.40597 17.6709 9.36797C17.616 9.12597 17.5507 8.88778 17.4756 8.65371C17.4667 8.62503 17.4574 8.5968 17.4481 8.56857C17.4466 8.56399 17.4451 8.55926 17.4435 8.55468C17.4315 8.51913 17.4196 8.48358 17.4072 8.44833C17.3944 8.41125 17.3808 8.37371 17.3677 8.33694C17.3541 8.29986 17.3402 8.26278 17.3263 8.22601C17.3128 8.19 17.2989 8.15399 17.285 8.11813C17.2845 8.11737 17.2842 8.1166 17.2838 8.11584C17.2548 8.04275 17.225 7.96997 17.1945 7.8981C17.179 7.86209 17.1631 7.82608 17.1472 7.79022C17.133 7.75772 17.1187 7.72552 17.104 7.69348C17.1005 7.68585 17.097 7.67761 17.0932 7.66998C17.0789 7.639 17.0645 7.60803 17.0499 7.57751C17.0499 7.57675 17.0494 7.57629 17.0491 7.57583C17.0325 7.54074 17.0154 7.50595 16.9984 7.47116C16.964 7.40066 16.9289 7.33154 16.8921 7.26226C16.8909 7.25952 16.8898 7.25723 16.8881 7.25448C16.8352 7.15362 16.7799 7.05414 16.7227 6.95556C16.7029 6.92184 16.6832 6.88827 16.6635 6.85501C16.624 6.78817 16.5831 6.72195 16.5413 6.65664C16.5204 6.62369 16.4995 6.59088 16.4783 6.55838C16.4357 6.49338 16.3924 6.42914 16.3483 6.36535C16.2825 6.26953 16.2144 6.17554 16.1441 6.08276C16.1209 6.05179 16.0973 6.02081 16.0738 5.99029C16.0266 5.9288 15.9785 5.86838 15.9291 5.80856C15.8807 5.74859 15.8308 5.68939 15.7797 5.63064C15.73 5.5722 15.6784 5.51422 15.6259 5.457C15.5919 5.41946 15.5574 5.38238 15.5226 5.34515C15.453 5.2713 15.3827 5.19897 15.3099 5.12741C15.2744 5.09186 15.2376 5.0563 15.2008 5.02106C15.1521 4.97436 15.1025 4.92828 15.0523 4.88266C15.0095 4.8436 14.9661 4.80499 14.9223 4.76654C14.9208 4.76501 14.9193 4.76395 14.9178 4.76242C14.8891 4.7377 14.8605 4.71329 14.8315 4.68857C14.818 4.67682 14.8044 4.66492 14.7905 4.65332C14.393 4.9263 13.9502 5.27405 13.4888 5.68054C15.1804 6.97372 16.2714 9.01229 16.2714 11.306C16.2714 13.3278 15.4236 15.1512 14.0642 16.441L15.2074 17.5842C15.2588 17.5351 15.3102 17.4847 15.3606 17.4341C15.3857 17.4086 15.4105 17.3831 15.4355 17.3575C15.5106 17.2806 15.5836 17.2021 15.6552 17.1223C15.7515 17.0164 15.8443 16.9078 15.9344 16.7967C15.9569 16.7689 15.9793 16.741 16.0017 16.7132C16.0466 16.6571 16.0907 16.6006 16.1333 16.5434C16.1658 16.5005 16.1975 16.4577 16.2295 16.4143C16.2295 16.4139 16.2295 16.4139 16.2295 16.4139C16.2608 16.3705 16.2923 16.3264 16.3231 16.2828C16.3641 16.224 16.4044 16.1644 16.4442 16.1049C16.4845 16.0449 16.5231 15.9846 16.561 15.9239C16.5993 15.8632 16.6368 15.8017 16.6736 15.7399C16.6917 15.7089 16.7099 15.6779 16.7281 15.647C16.8352 15.4617 16.9357 15.2722 17.029 15.0784C17.0769 14.9791 17.123 14.8785 17.167 14.7772C17.196 14.7107 17.2243 14.6438 17.2517 14.5766C17.2653 14.5428 17.2787 14.5093 17.292 14.4752C17.3051 14.4415 17.3183 14.4075 17.3311 14.3735C17.3442 14.3394 17.3566 14.3049 17.3689 14.2709C17.3817 14.2366 17.3936 14.2021 17.4057 14.1678C17.4173 14.1345 17.4289 14.1008 17.44 14.0675C17.4412 14.0645 17.4425 14.0614 17.4432 14.0579C17.4541 14.0251 17.4649 13.9924 17.4753 13.9596C17.5163 13.8328 17.5542 13.7041 17.5885 13.5745C17.5963 13.5478 17.6033 13.5206 17.6102 13.4936C17.6172 13.4677 17.6237 13.4418 17.63 13.4155C17.6366 13.39 17.6427 13.3641 17.6489 13.3386C17.6605 13.2907 17.6717 13.2423 17.6822 13.194C17.6872 13.172 17.6918 13.1499 17.6968 13.1274C17.7061 13.0838 17.715 13.04 17.7235 12.9964C17.7304 12.9613 17.7371 12.926 17.7437 12.8908C17.7518 12.8479 17.7595 12.8046 17.7664 12.7612C17.7719 12.7295 17.7769 12.6979 17.782 12.6662C17.7862 12.6402 17.7901 12.6143 17.7939 12.5883C17.7966 12.5702 17.7994 12.5525 17.8017 12.5342C17.8082 12.489 17.8145 12.4434 17.8198 12.3978C17.8236 12.368 17.8276 12.3378 17.8307 12.3071C17.8342 12.2781 17.8372 12.2488 17.8403 12.2194C17.8438 12.1889 17.8465 12.1583 17.8496 12.1274C17.8516 12.1057 17.8535 12.084 17.8554 12.0624C17.8581 12.0329 17.8604 12.0039 17.8624 11.9749C17.8654 11.9382 17.8677 11.9011 17.8702 11.8643C17.877 11.7557 17.8821 11.6463 17.8848 11.5364C17.8856 11.5044 17.8863 11.4722 17.8867 11.4401C17.8876 11.3953 17.8879 11.3507 17.8879 11.3058C17.8879 11.2686 17.8876 11.2311 17.8871 11.1935Z" fill="url(#paint6_linear_290_1688)"/>
<path d="M12.2618 6.85974C11.9083 7.22946 11.6043 7.57873 11.3498 7.90085V7.9013C11.3488 7.90253 11.348 7.90359 11.3468 7.90481C11.3201 7.93884 11.2941 7.97241 11.2686 8.00567C11.2381 8.0455 11.2084 8.08456 11.1797 8.12332C12.2397 8.7857 12.9451 9.96368 12.9451 11.3061C12.9451 12.4095 12.4687 13.4015 11.7107 14.088L12.8783 15.2554C13.9348 14.27 14.5954 12.8651 14.5954 11.3061C14.5954 9.46243 13.6719 7.83432 12.2618 6.85974Z" fill="url(#paint7_linear_290_1688)"/>
<path d="M9.03986 11.0922L10.6922 9.26086L11.2391 9.80774L9.40775 11.4601C9.163 11.6768 8.82319 11.337 9.03986 11.0922Z" fill="url(#paint8_linear_290_1688)"/>
<path d="M18.2576 2.24226V0.320268C18.2576 0.0355395 17.9134 -0.10713 17.7121 0.0942857L16.2277 1.57866C15.7808 2.02544 15.5298 2.63151 15.5298 3.26338L15.5368 4.96321L18.2576 2.24226Z" fill="url(#paint9_linear_290_1688)"/>
<path d="M18.2579 2.24231H20.18C20.4646 2.24231 20.6073 2.58655 20.406 2.78781L18.9217 4.27218C18.4747 4.71911 17.8688 4.97012 17.2368 4.97012L15.5371 4.9631L18.2579 2.24231Z" fill="url(#paint10_linear_290_1688)"/>
<path d="M18.6043 4.53769V2.24231H18.2579L15.5371 4.9631L17.2368 4.97012C17.7295 4.97012 18.2062 4.81677 18.6043 4.53769Z" fill="url(#paint11_linear_290_1688)"/>
<path d="M16.3058 4.61127L15.8887 4.1941L18.1006 1.98203C18.2158 1.86683 18.4026 1.86683 18.5178 1.98203C18.633 2.09724 18.633 2.284 18.5178 2.39921L16.3058 4.61127Z" fill="url(#paint12_linear_290_1688)"/>
<path d="M10.3911 9.59457V10.5728L11.2392 9.80774L10.6923 9.26086L10.3911 9.59457Z" fill="url(#paint13_linear_290_1688)"/>
<path d="M13.9643 7.92117C12.2174 9.66814 10.874 10.3913 10.4913 10.0087C10.1088 9.62603 10.8319 8.28265 12.5788 6.53567C14.3258 4.78885 16.052 3.68274 16.4346 4.06543C16.8173 4.44797 15.7112 6.17434 13.9643 7.92117Z" fill="url(#paint14_linear_290_1688)"/>
<path d="M12.2146 9.43881C12.0728 9.21268 11.9029 8.99631 11.7033 8.79672C11.5037 8.59714 11.2873 8.42715 11.0612 8.2854C10.4476 9.14737 10.2506 9.76809 10.4913 10.0087C10.7319 10.2492 11.3526 10.0524 12.2146 9.43881Z" fill="url(#paint15_linear_290_1688)"/>
<path d="M11.3498 7.901C11.3014 7.96249 11.2553 8.02246 11.2104 8.08197C11.4424 8.23852 11.6646 8.4201 11.8722 8.62762C12.0797 8.83514 12.2612 9.05731 12.4179 9.28924C12.4772 9.24438 12.5374 9.19845 12.5988 9.14993C12.4385 8.90915 12.2512 8.67859 12.0363 8.46359C11.8211 8.24844 11.5907 8.06137 11.3498 7.901Z" fill="url(#paint16_linear_290_1688)"/>
</g>
<defs>
<radialGradient id="paint0_radial_290_1688" cx="0" cy="0" r="1" gradientUnits="userSpaceOnUse" gradientTransform="translate(7.63679 5.98595) scale(13.6069)">
<stop stop-color="#FFFCF8"/>
<stop offset="0.2239" stop-color="#FBF9F7"/>
<stop offset="0.4254" stop-color="#F0F1F3"/>
<stop offset="0.6183" stop-color="#DEE3ED"/>
<stop offset="0.8059" stop-color="#C4D0E4"/>
<stop offset="0.9882" stop-color="#A3B7D9"/>
<stop offset="1" stop-color="#A1B5D8"/>
</radialGradient>
<linearGradient id="paint1_linear_290_1688" x1="16.3984" y1="12.5067" x2="10.291" y2="6.3992" gradientUnits="userSpaceOnUse">
<stop stop-color="#A1B5D8" stop-opacity="0"/>
<stop offset="0.2632" stop-color="#8EA0BA" stop-opacity="0.262745"/>
<stop offset="0.5306" stop-color="#808FA3" stop-opacity="0.529412"/>
<stop offset="0.7822" stop-color="#778595" stop-opacity="0.780392"/>
<stop offset="1" stop-color="#748290"/>
</linearGradient>
<radialGradient id="paint2_radial_290_1688" cx="0" cy="0" r="1" gradientUnits="userSpaceOnUse" gradientTransform="translate(8.88978 10.2675) scale(2.65614)">
<stop stop-color="#FF4974"/>
<stop offset="0.3262" stop-color="#FE4672"/>
<stop offset="0.5324" stop-color="#FB3E6C"/>
<stop offset="0.7054" stop-color="#F52F60"/>
<stop offset="0.8591" stop-color="#EE1A51"/>
<stop offset="1" stop-color="#E4003D"/>
</radialGradient>
<radialGradient id="paint3_radial_290_1688" cx="0" cy="0" r="1" gradientUnits="userSpaceOnUse" gradientTransform="translate(7.63679 5.98595) scale(13.6069)">
<stop stop-color="#FF4974"/>
<stop offset="0.3262" stop-color="#FE4672"/>
<stop offset="0.5324" stop-color="#FB3E6C"/>
<stop offset="0.7054" stop-color="#F52F60"/>
<stop offset="0.8591" stop-color="#EE1A51"/>
<stop offset="1" stop-color="#E4003D"/>
</radialGradient>
<radialGradient id="paint4_radial_290_1688" cx="0" cy="0" r="1" gradientUnits="userSpaceOnUse" gradientTransform="translate(8.22644 8.00071) scale(8.45375)">
<stop stop-color="#FF4974"/>
<stop offset="0.3262" stop-color="#FE4672"/>
<stop offset="0.5324" stop-color="#FB3E6C"/>
<stop offset="0.7054" stop-color="#F52F60"/>
<stop offset="0.8591" stop-color="#EE1A51"/>
<stop offset="1" stop-color="#E4003D"/>
</radialGradient>
<linearGradient id="paint5_linear_290_1688" x1="16.2582" y1="17.3134" x2="7.81237" y2="8.86758" gradientUnits="userSpaceOnUse">
<stop stop-color="#E4003D" stop-opacity="0"/>
<stop offset="0.2023" stop-color="#D01544" stop-opacity="0.203922"/>
<stop offset="0.4993" stop-color="#B92D4C" stop-opacity="0.498039"/>
<stop offset="0.7732" stop-color="#AB3C51" stop-opacity="0.772549"/>
<stop offset="1" stop-color="#A64153"/>
</linearGradient>
<linearGradient id="paint6_linear_290_1688" x1="18.7374" y1="14.8345" x2="10.2916" y2="6.38868" gradientUnits="userSpaceOnUse">
<stop stop-color="#E4003D" stop-opacity="0"/>
<stop offset="0.2023" stop-color="#D01544" stop-opacity="0.203922"/>
<stop offset="0.4993" stop-color="#B92D4C" stop-opacity="0.498039"/>
<stop offset="0.7732" stop-color="#AB3C51" stop-opacity="0.772549"/>
<stop offset="1" stop-color="#A64153"/>
</linearGradient>
<linearGradient id="paint7_linear_290_1688" x1="17.5732" y1="15.9984" x2="9.12738" y2="7.55257" gradientUnits="userSpaceOnUse">
<stop stop-color="#E4003D" stop-opacity="0"/>
<stop offset="0.2023" stop-color="#D01544" stop-opacity="0.203922"/>
<stop offset="0.4993" stop-color="#B92D4C" stop-opacity="0.498039"/>
<stop offset="0.7732" stop-color="#AB3C51" stop-opacity="0.772549"/>
<stop offset="1" stop-color="#A64153"/>
</linearGradient>
<linearGradient id="paint8_linear_290_1688" x1="9.98086" y1="10.4644" x2="10.3845" y2="10.8681" gradientUnits="userSpaceOnUse">
<stop stop-color="#3B395F"/>
<stop offset="0.0633" stop-color="#37355A"/>
<stop offset="0.4033" stop-color="#232543"/>
<stop offset="0.7232" stop-color="#171B35"/>
<stop offset="1" stop-color="#131830"/>
</linearGradient>
<linearGradient id="paint9_linear_290_1688" x1="16.0642" y1="1.74204" x2="17.411" y2="3.08885" gradientUnits="userSpaceOnUse">
<stop stop-color="#FFC738"/>
<stop offset="0.4286" stop-color="#FFBB23"/>
<stop offset="1" stop-color="#FFA700"/>
</linearGradient>
<linearGradient id="paint10_linear_290_1688" x1="18.7581" y1="4.4357" x2="17.4113" y2="3.08889" gradientUnits="userSpaceOnUse">
<stop stop-color="#FFC738"/>
<stop offset="0.4286" stop-color="#FFBB23"/>
<stop offset="1" stop-color="#FFA700"/>
</linearGradient>
<linearGradient id="paint11_linear_290_1688" x1="17.0707" y1="4.38444" x2="17.0707" y2="0.594795" gradientUnits="userSpaceOnUse">
<stop stop-color="#E58200" stop-opacity="0"/>
<stop offset="0.0396" stop-color="#E27F04" stop-opacity="0.039216"/>
<stop offset="0.4671" stop-color="#C15D2F" stop-opacity="0.466667"/>
<stop offset="0.8016" stop-color="#AD4949" stop-opacity="0.8"/>
<stop offset="1" stop-color="#A64153"/>
</linearGradient>
<linearGradient id="paint12_linear_290_1688" x1="17.0989" y1="2.98383" x2="17.5161" y2="3.401" gradientUnits="userSpaceOnUse">
<stop stop-color="#FFC738"/>
<stop offset="0.4286" stop-color="#FFBB23"/>
<stop offset="1" stop-color="#FFA700"/>
</linearGradient>
<linearGradient id="paint13_linear_290_1688" x1="10.8152" y1="10.9931" x2="10.8152" y2="10.1441" gradientUnits="userSpaceOnUse">
<stop stop-color="#3B395F" stop-opacity="0"/>
<stop offset="0.0633" stop-color="#37355A" stop-opacity="0.062745"/>
<stop offset="0.4033" stop-color="#232543" stop-opacity="0.403922"/>
<stop offset="0.7232" stop-color="#171B35" stop-opacity="0.721569"/>
<stop offset="1" stop-color="#131830"/>
</linearGradient>
<linearGradient id="paint14_linear_290_1688" x1="13.3126" y1="6.88662" x2="14.1197" y2="7.6938" gradientUnits="userSpaceOnUse">
<stop stop-color="#3B395F"/>
<stop offset="0.0633" stop-color="#37355A"/>
<stop offset="0.4033" stop-color="#232543"/>
<stop offset="0.7232" stop-color="#171B35"/>
<stop offset="1" stop-color="#131830"/>
</linearGradient>
<linearGradient id="paint15_linear_290_1688" x1="10.9748" y1="9.28025" x2="11.4033" y2="9.70877" gradientUnits="userSpaceOnUse">
<stop stop-color="#FFC738"/>
<stop offset="0.4286" stop-color="#FFBB23"/>
<stop offset="1" stop-color="#FFA700"/>
</linearGradient>
<linearGradient id="paint16_linear_290_1688" x1="11.3007" y1="7.95009" x2="12.5497" y2="9.19911" gradientUnits="userSpaceOnUse">
<stop stop-color="#FFC738"/>
<stop offset="0.4286" stop-color="#FFBB23"/>
<stop offset="1" stop-color="#FFA700"/>
</linearGradient>
<clipPath id="clip0_290_1688">
<rect width="20" height="20" fill="white" transform="translate(0.5)"/>
</clipPath>
</defs>
</svg>
