<svg width="20" height="20" viewBox="0 0 20 20" fill="none" xmlns="http://www.w3.org/2000/svg">
<g clip-path="url(#clip0_465_10565)">
<mask id="mask0_465_10565" style="mask-type:luminance" maskUnits="userSpaceOnUse" x="0" y="0" width="20" height="20">
<path d="M20 0H0V20H20V0Z" fill="white"/>
</mask>
<g mask="url(#mask0_465_10565)">
<path opacity="0.4" d="M8.95823 2.04194C9.53323 1.55027 10.4749 1.55027 11.0582 2.04194L12.3749 3.17527C12.6249 3.39194 13.0916 3.56694 13.4249 3.56694H14.8416C15.7249 3.56694 16.4499 4.29194 16.4499 5.17527V6.59194C16.4499 6.91694 16.6249 7.39194 16.8416 7.64194L17.9749 8.9586C18.4666 9.5336 18.4666 10.4753 17.9749 11.0586L16.8416 12.3753C16.6249 12.6253 16.4499 13.0919 16.4499 13.4253V14.8419C16.4499 15.7253 15.7249 16.4503 14.8416 16.4503H13.4249C13.0999 16.4503 12.6249 16.6253 12.3749 16.8419L11.0582 17.9753C10.4832 18.4669 9.54156 18.4669 8.95823 17.9753L7.64155 16.8419C7.39155 16.6253 6.92488 16.4503 6.59155 16.4503H5.14988C4.26655 16.4503 3.54155 15.7253 3.54155 14.8419V13.4169C3.54155 13.0919 3.36655 12.6253 3.15822 12.3753L2.03322 11.0503C1.54988 10.4753 1.54988 9.54193 2.03322 8.96693L3.15822 7.64194C3.36655 7.39194 3.54155 6.92527 3.54155 6.60027V5.16694C3.54155 4.2836 4.26655 3.5586 5.14988 3.5586H6.59155C6.91655 3.5586 7.39155 3.3836 7.64155 3.16694L8.95823 2.04194Z" fill="white"/>
<path d="M8.99173 12.6411C8.82506 12.6411 8.66673 12.5744 8.55006 12.4577L6.53336 10.4411C6.2917 10.1994 6.2917 9.79941 6.53336 9.55775C6.77503 9.31608 7.17503 9.31608 7.41669 9.55775L8.99173 11.1327L12.5751 7.54941C12.8167 7.30775 13.2167 7.30775 13.4584 7.54941C13.7001 7.79108 13.7001 8.19108 13.4584 8.43275L9.43339 12.4577C9.31673 12.5744 9.1584 12.6411 8.99173 12.6411Z" fill="white"/>
</g>
</g>
<defs>
<clipPath id="clip0_465_10565">
<rect width="20" height="20" fill="white"/>
</clipPath>
</defs>
</svg>
