<svg width="20" height="20" viewBox="0 0 20 20" fill="none" xmlns="http://www.w3.org/2000/svg">
<g clip-path="url(#clip0_465_10457)">
<mask id="mask0_465_10457" style="mask-type:luminance" maskUnits="userSpaceOnUse" x="0" y="0" width="20" height="20">
<path d="M20 0H0V20H20V0Z" fill="white"/>
</mask>
<g mask="url(#mask0_465_10457)">
<path opacity="0.4" d="M13.4917 1.66669H6.50835C3.47502 1.66669 1.66669 3.47502 1.66669 6.50835V13.4834C1.66669 16.525 3.47502 18.3334 6.50835 18.3334H13.4834C16.5167 18.3334 18.325 16.525 18.325 13.4917V6.50835C18.3334 3.47502 16.525 1.66669 13.4917 1.66669Z" fill="white"/>
<path d="M6.10845 12.7C5.97511 12.7 5.84178 12.6583 5.72511 12.5667C5.45011 12.3583 5.40011 11.9667 5.60845 11.6917L7.59178 9.11666C7.83345 8.80833 8.17511 8.60833 8.56677 8.55833C8.95011 8.50833 9.34177 8.61666 9.6501 8.85833L11.1751 10.0583C11.2334 10.1083 11.2918 10.1083 11.3334 10.1C11.3668 10.1 11.4251 10.0833 11.4751 10.0167L13.4001 7.53334C13.6084 7.25834 14.0084 7.20834 14.2751 7.42501C14.5501 7.63334 14.6001 8.02501 14.3834 8.30001L12.4584 10.7833C12.2168 11.0917 11.8751 11.2917 11.4834 11.3333C11.0918 11.3833 10.7084 11.275 10.4001 11.0333L8.8751 9.83333C8.81677 9.78333 8.75011 9.78333 8.71677 9.79166C8.68344 9.79166 8.62511 9.80833 8.57511 9.875L6.59178 12.45C6.48345 12.6167 6.30011 12.7 6.10845 12.7Z" fill="white"/>
</g>
</g>
<defs>
<clipPath id="clip0_465_10457">
<rect width="20" height="20" fill="white"/>
</clipPath>
</defs>
</svg>
