<svg width="20" height="20" viewBox="0 0 20 20" fill="none" xmlns="http://www.w3.org/2000/svg">
<g clip-path="url(#clip0_465_10590)">
<mask id="mask0_465_10590" style="mask-type:luminance" maskUnits="userSpaceOnUse" x="0" y="0" width="20" height="20">
<path d="M20 0H0V20H20V0Z" fill="white"/>
</mask>
<g mask="url(#mask0_465_10590)">
<path opacity="0.4" d="M10.0001 18.2752C5.80006 18.2752 2.37506 14.8585 2.37506 10.6502V9.08349C2.37506 8.75849 2.64173 8.50015 2.95839 8.50015C3.27506 8.50015 3.54173 8.76682 3.54173 9.08349V10.6502C3.54173 14.2085 6.43339 17.1002 9.99173 17.1002C13.5501 17.1002 16.4417 14.2085 16.4417 10.6502V9.08349C16.4417 8.75849 16.7084 8.50015 17.0251 8.50015C17.3417 8.50015 17.6084 8.76682 17.6084 9.08349V10.6502C17.6251 14.8585 14.2001 18.2752 10.0001 18.2752Z" fill="white"/>
<path d="M9.9999 1.66666C7.1999 1.66666 4.91656 3.94999 4.91656 6.74999V10.6583C4.91656 13.4583 7.1999 15.7417 9.9999 15.7417C12.7999 15.7417 15.0832 13.4583 15.0832 10.6583V6.74999C15.0832 3.94999 12.7999 1.66666 9.9999 1.66666ZM11.8166 8.82499C11.7582 9.04999 11.5499 9.19999 11.3249 9.19999C11.2832 9.19999 11.2332 9.19166 11.1916 9.18332C10.3416 8.94999 9.44156 8.94999 8.59156 9.18332C8.31656 9.25832 8.04156 9.09999 7.96656 8.82499C7.89156 8.55832 8.0499 8.27499 8.3249 8.19999C9.3499 7.91666 10.4332 7.91666 11.4582 8.19999C11.7332 8.27499 11.8916 8.54999 11.8166 8.82499ZM12.5249 6.51666C12.4499 6.72499 12.2582 6.84999 12.0499 6.84999C11.9916 6.84999 11.9332 6.84166 11.8749 6.81666C10.5999 6.34999 9.1999 6.34999 7.9249 6.81666C7.65823 6.91666 7.36656 6.78332 7.26656 6.51666C7.1749 6.25832 7.30823 5.96666 7.5749 5.86666C9.0749 5.32499 10.7249 5.32499 12.2166 5.86666C12.4832 5.96666 12.6166 6.25832 12.5249 6.51666Z" fill="white"/>
</g>
</g>
<defs>
<clipPath id="clip0_465_10590">
<rect width="20" height="20" fill="white"/>
</clipPath>
</defs>
</svg>
