<svg width="20" height="20" viewBox="0 0 20 20" fill="none" xmlns="http://www.w3.org/2000/svg">
<g clip-path="url(#clip0_465_10645)">
<mask id="mask0_465_10645" style="mask-type:luminance" maskUnits="userSpaceOnUse" x="0" y="0" width="20" height="20">
<path d="M20 0H0V20H20V0Z" fill="white"/>
</mask>
<g mask="url(#mask0_465_10645)">
<path d="M18.9584 14.5833C18.9584 14.925 18.675 15.2083 18.3334 15.2083H12.5V15.4167C12.5 16.6667 11.75 17.0833 10.8334 17.0833H5.83335C4.91669 17.0833 4.16669 16.6667 4.16669 15.4167V15.2083H1.66669C1.32502 15.2083 1.04169 14.925 1.04169 14.5833C1.04169 14.2417 1.32502 13.9583 1.66669 13.9583H4.16669V13.75C4.16669 12.5 4.91669 12.0833 5.83335 12.0833H10.8334C11.75 12.0833 12.5 12.5 12.5 13.75V13.9583H18.3334C18.675 13.9583 18.9584 14.2417 18.9584 14.5833Z" fill="white"/>
<path opacity="0.4" d="M18.9584 5.41666C18.9584 5.75833 18.675 6.04166 18.3334 6.04166H15.8334V6.25C15.8334 7.5 15.0834 7.91666 14.1667 7.91666H9.16669C8.25002 7.91666 7.50002 7.5 7.50002 6.25V6.04166H1.66669C1.32502 6.04166 1.04169 5.75833 1.04169 5.41666C1.04169 5.075 1.32502 4.79166 1.66669 4.79166H7.50002V4.58333C7.50002 3.33333 8.25002 2.91666 9.16669 2.91666H14.1667C15.0834 2.91666 15.8334 3.33333 15.8334 4.58333V4.79166H18.3334C18.675 4.79166 18.9584 5.075 18.9584 5.41666Z" fill="white"/>
</g>
</g>
<defs>
<clipPath id="clip0_465_10645">
<rect width="20" height="20" fill="white"/>
</clipPath>
</defs>
</svg>
