<svg width="20" height="20" viewBox="0 0 20 20" fill="none" xmlns="http://www.w3.org/2000/svg">
<g clip-path="url(#clip0_465_10575)">
<mask id="mask0_465_10575" style="mask-type:luminance" maskUnits="userSpaceOnUse" x="0" y="0" width="20" height="20">
<path d="M20 0H0V20H20V0Z" fill="white"/>
</mask>
<g mask="url(#mask0_465_10575)">
<path opacity="0.4" d="M3.32487 12.217L2.05822 10.9503C1.54155 10.4337 1.54155 9.58368 2.05822 9.06701L3.32487 7.80034C3.54154 7.58367 3.71654 7.15866 3.71654 6.85866V5.06703C3.71654 4.33369 4.31655 3.73366 5.04988 3.73366H6.84154C7.14154 3.73366 7.56655 3.55869 7.78322 3.34202L9.0499 2.07534C9.56657 1.55867 10.4166 1.55867 10.9332 2.07534L12.1999 3.34202C12.4166 3.55869 12.8416 3.73366 13.1416 3.73366H14.9332C15.6666 3.73366 16.2666 4.33369 16.2666 5.06703V6.85866C16.2666 7.15866 16.4416 7.58367 16.6582 7.80034L17.9249 9.06701C18.4416 9.58368 18.4416 10.4337 17.9249 10.9503L16.6582 12.217C16.4416 12.4337 16.2666 12.8587 16.2666 13.1587V14.9503C16.2666 15.6837 15.6666 16.2837 14.9332 16.2837H13.1416C12.8416 16.2837 12.4166 16.4587 12.1999 16.6753L10.9332 17.942C10.4166 18.4587 9.56657 18.4587 9.0499 17.942L7.78322 16.6753C7.56655 16.4587 7.14154 16.2837 6.84154 16.2837H5.04988C4.31655 16.2837 3.71654 15.6837 3.71654 14.9503V13.1587C3.71654 12.8503 3.54154 12.4253 3.32487 12.217Z" fill="white"/>
<path d="M12.5002 13.3334C12.0335 13.3334 11.6585 12.9584 11.6585 12.5C11.6585 12.0417 12.0335 11.6667 12.4918 11.6667C12.9502 11.6667 13.3252 12.0417 13.3252 12.5C13.3252 12.9584 12.9585 13.3334 12.5002 13.3334Z" fill="white"/>
<path d="M7.5083 8.33335C7.04163 8.33335 6.66663 7.95835 6.66663 7.50002C6.66663 7.04169 7.04163 6.66669 7.49996 6.66669C7.95829 6.66669 8.33329 7.04169 8.33329 7.50002C8.33329 7.95835 7.96663 8.33335 7.5083 8.33335Z" fill="white"/>
<path d="M7.49993 13.1246C7.3416 13.1246 7.18326 13.0663 7.05826 12.9413C6.8166 12.6996 6.8166 12.2996 7.05826 12.0579L12.0582 7.0579C12.2999 6.81623 12.6999 6.81623 12.9416 7.0579C13.1832 7.29956 13.1832 7.69961 12.9416 7.94128L7.9416 12.9413C7.8166 13.0663 7.65826 13.1246 7.49993 13.1246Z" fill="white"/>
</g>
</g>
<defs>
<clipPath id="clip0_465_10575">
<rect width="20" height="20" fill="white"/>
</clipPath>
</defs>
</svg>
