<svg width="20" height="20" viewBox="0 0 20 20" fill="none" xmlns="http://www.w3.org/2000/svg">
<path d="M12.4219 7.78478H11.0503V7.22348C11.0503 7.01054 11.1547 6.99271 11.2526 6.99271H12.3885C12.45 6.99271 12.5091 6.96827 12.5526 6.92476C12.5961 6.88124 12.6205 6.82223 12.6205 6.7607V5.04183C12.6205 4.98029 12.5961 4.92128 12.5526 4.87777C12.5091 4.83426 12.45 4.80981 12.3885 4.80981H10.8516C10.178 4.80981 9.53935 5.00649 9.10013 5.48099L9.40572 5.84093C9.67924 5.52127 10.1254 5.27384 10.8516 5.27384H12.1565V6.52868H11.2526C10.8478 6.52868 10.5862 6.80141 10.5862 7.22348V8.01679C10.5862 8.07833 10.6107 8.13734 10.6542 8.18085C10.6977 8.22436 10.7567 8.24881 10.8183 8.24881H12.1696L12.0416 9.76809H10.7514C10.6899 9.76809 10.6309 9.79254 10.5874 9.83605C10.5439 9.87956 10.5194 9.93857 10.5194 10.0001V14.7264H8.97885V10.0001C8.97885 9.93857 8.9544 9.87956 8.91089 9.83605C8.86738 9.79254 8.80837 9.76809 8.74683 9.76809H7.97654V8.24881H8.74683C8.80837 8.24881 8.86738 8.22436 8.91089 8.18085C8.9544 8.13734 8.97885 8.07833 8.97885 8.01679V7.12431C8.97885 6.90182 9.01442 6.42136 9.28294 6.00576L8.85701 5.80898C8.65699 6.14668 8.53245 6.57972 8.51482 7.12431V7.78478H7.74453C7.683 7.78478 7.62398 7.80922 7.58047 7.85273C7.53696 7.89624 7.51252 7.95526 7.51252 8.01679V10.0001C7.51252 10.0616 7.53696 10.1207 7.58047 10.1642C7.62398 10.2077 7.683 10.2321 7.74453 10.2321H8.51482V14.9584C8.51482 15.0199 8.53926 15.0789 8.58277 15.1224C8.62628 15.166 8.6853 15.1904 8.74683 15.1904H10.7514C10.813 15.1904 10.872 15.166 10.9155 15.1224C10.959 15.0789 10.9835 15.0199 10.9835 14.9584V10.2321H12.2549C12.3131 10.2321 12.3691 10.2103 12.412 10.1709C12.4548 10.1315 12.4813 10.0775 12.4861 10.0196L12.6531 8.03626C12.6558 8.00427 12.6518 7.97206 12.6415 7.94168C12.6311 7.9113 12.6145 7.88341 12.5927 7.85977C12.571 7.83613 12.5446 7.81726 12.5152 7.80435C12.4858 7.79144 12.4541 7.78478 12.4219 7.78478Z" fill="#212121" stroke="#212121" stroke-width="0.2"/>
<path d="M16.1764 4.22193L16.4994 3.88843C16.3925 3.77654 16.2814 3.66876 16.1662 3.56506L15.8435 3.89891C15.959 4.002 16.0699 4.10967 16.1764 4.22193Z" fill="#212121" stroke="#212121" stroke-width="0.2"/>
<path d="M16.7267 4.14026L16.3632 4.42878C17.2273 5.42869 17.7027 6.70617 17.7025 8.02771V11.9724C17.7025 15.0402 15.1788 17.536 12.0767 17.536H8.08968C7.06299 17.5376 6.05535 17.2588 5.17546 16.7297C4.29556 16.2007 3.5768 15.4414 3.09669 14.5339L2.6958 14.7681C3.21696 15.7455 3.99431 16.5627 4.94452 17.1321C5.89472 17.7015 6.98196 18.0015 8.08968 18H12.0767C15.4347 18 18.1666 15.296 18.1666 11.9724V8.02773C18.1669 6.60143 17.6561 5.22224 16.7267 4.14026Z" fill="#212121" stroke="#212121" stroke-width="0.2"/>
<path d="M2.46403 11.9723V8.02766C2.46403 4.95985 4.98779 2.46404 8.08989 2.46404H12.0769C13.3709 2.462 14.6262 2.90514 15.6321 3.71908L15.9079 3.34589C14.8221 2.47289 13.4702 1.99792 12.0769 2.00001H8.08989C4.73191 2.00001 2 4.70401 2 8.02766V11.9723C1.99916 12.8323 2.18506 13.6823 2.54485 14.4635L2.97408 14.2859C2.63738 13.5611 2.4633 12.7715 2.46403 11.9723Z" fill="#212121" stroke="#212121" stroke-width="0.2"/>
</svg>
