<svg width="20" height="20" viewBox="0 0 20 20" fill="none" xmlns="http://www.w3.org/2000/svg">
<path d="M14 6.77338C13.96 6.76671 13.9133 6.76671 13.8733 6.77338C12.9533 6.74004 12.22 5.98671 12.22 5.05338C12.22 4.10004 12.9867 3.33337 13.94 3.33337C14.8933 3.33337 15.66 4.10671 15.66 5.05338C15.6533 5.98671 14.92 6.74004 14 6.77338Z" stroke="#212121" stroke-linecap="round" stroke-linejoin="round"/>
<path d="M13.3133 11.6267C14.2267 11.78 15.2333 11.62 15.94 11.1467C16.88 10.52 16.88 9.49336 15.94 8.86669C15.2267 8.39336 14.2067 8.23336 13.2933 8.39336" stroke="#212121" stroke-linecap="round" stroke-linejoin="round"/>
<path d="M5.98001 6.77338C6.02001 6.76671 6.06667 6.76671 6.10667 6.77338C7.02667 6.74004 7.76001 5.98671 7.76001 5.05338C7.76001 4.10004 6.99334 3.33337 6.04001 3.33337C5.08668 3.33337 4.32001 4.10671 4.32001 5.05338C4.32667 5.98671 5.06001 6.74004 5.98001 6.77338Z" stroke="#212121" stroke-linecap="round" stroke-linejoin="round"/>
<path d="M6.66666 11.6267C5.75333 11.78 4.74667 11.62 4.04 11.1467C3.1 10.52 3.1 9.49336 4.04 8.86669C4.75333 8.39336 5.77333 8.23336 6.68666 8.39336" stroke="#212121" stroke-linecap="round" stroke-linejoin="round"/>
<path d="M9.99998 11.7534C9.95998 11.7467 9.91332 11.7467 9.87332 11.7534C8.95332 11.72 8.21999 10.9667 8.21999 10.0334C8.21999 9.08002 8.98665 8.31335 9.93998 8.31335C10.8933 8.31335 11.66 9.08669 11.66 10.0334C11.6533 10.9667 10.92 11.7267 9.99998 11.7534Z" stroke="#212121" stroke-linecap="round" stroke-linejoin="round"/>
<path d="M8.06 13.8534C7.12 14.48 7.12 15.5067 8.06 16.1334C9.12666 16.8467 10.8733 16.8467 11.94 16.1334C12.88 15.5067 12.88 14.48 11.94 13.8534C10.88 13.1467 9.12666 13.1467 8.06 13.8534Z" stroke="#212121" stroke-linecap="round" stroke-linejoin="round"/>
</svg>
