<svg width="20" height="20" viewBox="0 0 20 20" fill="none" xmlns="http://www.w3.org/2000/svg">
<path d="M7.9 17H12.1C15.6 17 17 15.6 17 12.1V7.9C17 4.4 15.6 3 12.1 3H7.9C4.4 3 3 4.4 3 7.9V12.1C3 15.6 4.4 17 7.9 17Z" stroke="#212121" stroke-linecap="round" stroke-linejoin="round"/>
<path d="M6.29 8.08205L9.99999 10.231L13.682 8.09604" stroke="#212121" stroke-linecap="round" stroke-linejoin="round"/>
<path d="M9.99997 14.0391V10.2241" stroke="#212121" stroke-linecap="round" stroke-linejoin="round"/>
<path d="M9.13201 6.00304L6.892 7.24904C6.388 7.52904 5.96799 8.23604 5.96799 8.81704V11.19C5.96799 11.771 6.381 12.478 6.892 12.758L9.13201 14.004C9.60801 14.27 10.392 14.27 10.875 14.004L13.115 12.758C13.619 12.478 14.039 11.771 14.039 11.19V8.81004C14.039 8.22904 13.626 7.52204 13.115 7.24204L10.875 5.99604C10.392 5.73004 9.60801 5.73004 9.13201 6.00304Z" stroke="#212121" stroke-linecap="round" stroke-linejoin="round"/>
</svg>
