<svg width="20" height="20" viewBox="0 0 20 20" fill="none" xmlns="http://www.w3.org/2000/svg">
<path d="M7.33332 9.60005C7.33332 10.1134 7.73332 10.5334 8.21999 10.5334H9.21999C9.64666 10.5334 9.99332 10.1667 9.99332 9.72005C9.99332 9.23338 9.77999 9.06005 9.46666 8.94672L7.86666 8.38672C7.54666 8.27338 7.33332 8.10005 7.33332 7.61338C7.33332 7.16672 7.67999 6.80005 8.10666 6.80005H9.10666C9.59999 6.80672 9.99999 7.22005 9.99999 7.73338" stroke="#212121" stroke-linecap="round" stroke-linejoin="round"/>
<path d="M8.66668 10.5667V11.06" stroke="#212121" stroke-linecap="round" stroke-linejoin="round"/>
<path d="M8.66668 6.27332V6.79332" stroke="#212121" stroke-linecap="round" stroke-linejoin="round"/>
<path d="M8.65999 13.9866C11.6018 13.9866 13.9867 11.6018 13.9867 8.65992C13.9867 5.71808 11.6018 3.33325 8.65999 3.33325C5.71815 3.33325 3.33332 5.71808 3.33332 8.65992C3.33332 11.6018 5.71815 13.9866 8.65999 13.9866Z" stroke="#212121" stroke-linecap="round" stroke-linejoin="round"/>
<path d="M10.6533 15.2534C11.2533 16.1001 12.2333 16.6534 13.3533 16.6534C15.1733 16.6534 16.6533 15.1734 16.6533 13.3534C16.6533 12.2467 16.1067 11.2667 15.2733 10.6667" stroke="#212121" stroke-linecap="round" stroke-linejoin="round"/>
</svg>
