<svg width="20" height="20" viewBox="0 0 20 20" fill="none" xmlns="http://www.w3.org/2000/svg">
<path d="M7.33332 10.1333H12" stroke="#212121" stroke-miterlimit="10" stroke-linecap="round" stroke-linejoin="round"/>
<path d="M7.33332 12.8H10.2533" stroke="#212121" stroke-miterlimit="10" stroke-linecap="round" stroke-linejoin="round"/>
<path d="M8.66666 5.99999H11.3333C12.6667 5.99999 12.6667 5.33332 12.6667 4.66666C12.6667 3.33332 12 3.33332 11.3333 3.33332H8.66666C7.99999 3.33332 7.33332 3.33332 7.33332 4.66666C7.33332 5.99999 7.99999 5.99999 8.66666 5.99999Z" stroke="#212121" stroke-miterlimit="10" stroke-linecap="round" stroke-linejoin="round"/>
<path d="M12.6667 4.68C14.8867 4.8 16 5.62 16 8.66667V12.6667C16 15.3333 15.3333 16.6667 12 16.6667H8C4.66667 16.6667 4 15.3333 4 12.6667V8.66667C4 5.62667 5.11333 4.8 7.33333 4.68" stroke="#212121" stroke-miterlimit="10" stroke-linecap="round" stroke-linejoin="round"/>
</svg>
