<svg width="20" height="20" viewBox="0 0 20 20" fill="none" xmlns="http://www.w3.org/2000/svg">
<g clip-path="url(#clip0_465_10518)">
<mask id="mask0_465_10518" style="mask-type:luminance" maskUnits="userSpaceOnUse" x="0" y="0" width="20" height="20">
<path d="M20 0H0V20H20V0Z" fill="white"/>
</mask>
<g mask="url(#mask0_465_10518)">
<path opacity="0.4" d="M13.4917 3.33337H6.50835C3.47502 3.33337 1.66669 5.14171 1.66669 8.17504V13.4834C1.66669 16.525 3.47502 18.3334 6.50835 18.3334H13.4834C16.5167 18.3334 18.325 16.525 18.325 13.4917V8.17504C18.3334 5.14171 16.525 3.33337 13.4917 3.33337Z" fill="white"/>
<path d="M17.75 10.1921H14.85C14.0334 10.1921 13.3084 10.6421 12.9417 11.3754L12.2417 12.7587C12.075 13.0921 11.7417 13.3004 11.375 13.3004H8.64169C8.38335 13.3004 8.01669 13.2421 7.77502 12.7587L7.07502 11.3837C6.70835 10.6587 5.97502 10.2004 5.16669 10.2004H2.25002C1.92502 10.2004 1.66669 10.4587 1.66669 10.7837V13.5004C1.66669 16.5254 3.48335 18.3337 6.51669 18.3337H13.5C16.3584 18.3337 18.1167 16.7671 18.3334 13.9837V10.7754C18.3334 10.4587 18.075 10.1921 17.75 10.1921Z" fill="white"/>
<path d="M12.1083 5.39169C11.8666 5.15002 11.4666 5.15002 11.2249 5.39169L10.6249 5.99169V1.66669C10.6249 1.32502 10.3416 1.04169 9.99994 1.04169C9.65827 1.04169 9.37494 1.32502 9.37494 1.66669V5.99169L8.77494 5.39169C8.53327 5.15002 8.1333 5.15002 7.89164 5.39169C7.64997 5.63335 7.64997 6.03335 7.89164 6.27502L9.55827 7.94169C9.5666 7.95002 9.57494 7.95002 9.57494 7.95835C9.62494 8.00835 9.6916 8.05002 9.75827 8.08335C9.8416 8.10835 9.9166 8.12502 9.99994 8.12502C10.0833 8.12502 10.1583 8.10835 10.2333 8.07502C10.3083 8.04169 10.3749 8.00002 10.4416 7.94169L12.1083 6.27502C12.3499 6.03335 12.3499 5.63335 12.1083 5.39169Z" fill="white"/>
</g>
</g>
<defs>
<clipPath id="clip0_465_10518">
<rect width="20" height="20" fill="white"/>
</clipPath>
</defs>
</svg>
