<svg width="20" height="20" viewBox="0 0 20 20" fill="none" xmlns="http://www.w3.org/2000/svg">
<path d="M7.34009 3.33333H13.6534C14.0868 3.33333 14.4734 3.34668 14.8201 3.39335C16.6668 3.60002 17.1668 4.46667 17.1668 6.84001V11.0533C17.1668 13.4267 16.6668 14.2933 14.8201 14.5C14.4734 14.5467 14.0934 14.56 13.6534 14.56H7.34009C6.90675 14.56 6.52009 14.5467 6.17342 14.5C4.32675 14.2933 3.82676 13.4267 3.82676 11.0533V6.84001C3.82676 4.46667 4.32675 3.60002 6.17342 3.39335C6.52009 3.34668 6.90675 3.33333 7.34009 3.33333Z" stroke="#212121" stroke-linecap="round" stroke-linejoin="round"/>
<path d="M11.5536 7.54667H14.0069" stroke="#212121" stroke-linecap="round" stroke-linejoin="round"/>
<path d="M6.99346 11.4067H7.00678H14.0135" stroke="#212121" stroke-linecap="round" stroke-linejoin="round"/>
<path d="M7.1666 16.6667H13.8333" stroke="#212121" stroke-linecap="round" stroke-linejoin="round"/>
<path d="M7.29647 7.53333H7.30246" stroke="#212121" stroke-linecap="round" stroke-linejoin="round"/>
<path d="M9.49627 7.53333H9.50226" stroke="#212121" stroke-linecap="round" stroke-linejoin="round"/>
</svg>
