<svg width="20" height="20" viewBox="0 0 20 20" fill="none" xmlns="http://www.w3.org/2000/svg">
<path d="M7.87334 3.33333L5.46001 5.75333" stroke="#212121" stroke-miterlimit="10" stroke-linecap="round" stroke-linejoin="round"/>
<path d="M12.1267 3.33333L14.54 5.75333" stroke="#212121" stroke-miterlimit="10" stroke-linecap="round" stroke-linejoin="round"/>
<path d="M3.33332 7.23333C3.33332 6 3.99332 5.9 4.81332 5.9H15.1867C16.0067 5.9 16.6667 6 16.6667 7.23333C16.6667 8.66667 16.0067 8.56667 15.1867 8.56667H4.81332C3.99332 8.56667 3.33332 8.66667 3.33332 7.23333Z" stroke="#212121"/>
<path d="M8.50666 11.3333V13.7" stroke="#212121" stroke-linecap="round"/>
<path d="M11.5733 11.3333V13.7" stroke="#212121" stroke-linecap="round"/>
<path d="M4.33332 8.66667L5.27332 14.4267C5.48666 15.72 5.99999 16.6667 7.90666 16.6667H11.9267C14 16.6667 14.3067 15.76 14.5467 14.5067L15.6667 8.66667" stroke="#212121" stroke-linecap="round"/>
</svg>
