<svg width="20" height="20" viewBox="0 0 20 20" fill="none" xmlns="http://www.w3.org/2000/svg">
<g clip-path="url(#clip0_465_10600)">
<mask id="mask0_465_10600" style="mask-type:luminance" maskUnits="userSpaceOnUse" x="0" y="0" width="20" height="20">
<path d="M20 0H0V20H20V0Z" fill="white"/>
</mask>
<g mask="url(#mask0_465_10600)">
<path opacity="0.4" d="M17.0001 13.609C16.7668 14.234 16.2751 14.709 15.6335 14.9257C14.7335 15.2257 13.8085 15.4507 12.8751 15.609C12.7835 15.6257 12.6918 15.6423 12.6001 15.6507C12.4501 15.6757 12.3001 15.6923 12.1501 15.709C11.9668 15.734 11.7751 15.7507 11.5835 15.7673C11.0585 15.809 10.5418 15.834 10.0168 15.834C9.48348 15.834 8.95015 15.809 8.42515 15.759C8.20015 15.7423 7.98348 15.7173 7.76682 15.684C7.64182 15.6673 7.51682 15.6507 7.40015 15.634C7.30848 15.6173 7.21682 15.609 7.12515 15.5923C6.20015 15.4423 5.28348 15.2173 4.39182 14.9173C3.72515 14.6923 3.21682 14.2173 2.99182 13.609C2.76682 13.009 2.85015 12.309 3.20848 11.709L4.15015 10.1423C4.35015 9.80067 4.53348 9.14233 4.53348 8.74233V7.19232C4.53348 4.16732 6.99182 1.70898 10.0168 1.70898C13.0335 1.70898 15.4918 4.16732 15.4918 7.19232V8.74233C15.4918 9.14233 15.6751 9.80067 15.8835 10.1423L16.8251 11.709C17.1668 12.2923 17.2335 12.9757 17.0001 13.609Z" fill="white"/>
<path d="M10.0002 8.96717C9.65015 8.96717 9.36682 8.68384 9.36682 8.33384V5.75053C9.36682 5.40053 9.65015 5.11719 10.0002 5.11719C10.3502 5.11719 10.6335 5.40053 10.6335 5.75053V8.33384C10.6252 8.68384 10.3418 8.96717 10.0002 8.96717Z" fill="white"/>
<path d="M12.3585 16.675C12.0085 17.6417 11.0835 18.3333 10.0002 18.3333C9.34183 18.3333 8.69183 18.0667 8.23348 17.5917C7.96681 17.3417 7.76681 17.0083 7.65015 16.6667C7.75848 16.6833 7.86681 16.6917 7.98348 16.7083C8.17515 16.7333 8.37516 16.7583 8.57516 16.775C9.05016 16.8167 9.5335 16.8417 10.0168 16.8417C10.4918 16.8417 10.9668 16.8167 11.4335 16.775C11.6085 16.7583 11.7835 16.75 11.9502 16.725C12.0835 16.7083 12.2168 16.6917 12.3585 16.675Z" fill="white"/>
</g>
</g>
<defs>
<clipPath id="clip0_465_10600">
<rect width="20" height="20" fill="white"/>
</clipPath>
</defs>
</svg>
