<svg width="20" height="20" viewBox="0 0 20 20" fill="none" xmlns="http://www.w3.org/2000/svg">
<path d="M3.33332 7.99992V6.33325C3.33332 4.67325 4.67332 3.33325 6.33332 3.33325H7.99999" stroke="#212121" stroke-linecap="round" stroke-linejoin="round"/>
<path d="M12 3.33325H13.6667C15.3267 3.33325 16.6667 4.67325 16.6667 6.33325V7.99992" stroke="#212121" stroke-linecap="round" stroke-linejoin="round"/>
<path d="M16.6667 12.6667V13.6667C16.6667 15.3267 15.3267 16.6667 13.6667 16.6667H12.6667" stroke="#212121" stroke-linecap="round" stroke-linejoin="round"/>
<path d="M7.99999 16.6667H6.33332C4.67332 16.6667 3.33332 15.3267 3.33332 13.6667V12" stroke="#212121" stroke-linecap="round" stroke-linejoin="round"/>
<path d="M13.3333 8.33325V11.6666C13.3333 12.9999 12.6667 13.6666 11.3333 13.6666H8.66668C7.33334 13.6666 6.66668 12.9999 6.66668 11.6666V8.33325C6.66668 6.99992 7.33334 6.33325 8.66668 6.33325H11.3333C12.6667 6.33325 13.3333 6.99992 13.3333 8.33325Z" stroke="#212121" stroke-linecap="round" stroke-linejoin="round"/>
<path d="M14.6667 10H5.33332" stroke="#212121" stroke-linecap="round" stroke-linejoin="round"/>
</svg>
