<svg width="20" height="20" viewBox="0 0 20 20" fill="none" xmlns="http://www.w3.org/2000/svg">
<path d="M7.99999 16.6667H12C15.3333 16.6667 16.6667 15.3333 16.6667 12V8.00001C16.6667 4.66668 15.3333 3.33334 12 3.33334H7.99999C4.66666 3.33334 3.33332 4.66668 3.33332 8.00001V12C3.33332 15.3333 4.66666 16.6667 7.99999 16.6667Z" stroke="#212121" stroke-linecap="round" stroke-linejoin="round"/>
<path d="M12.3333 14.3333C13.0667 14.3333 13.6667 13.7333 13.6667 13V6.99999C13.6667 6.26666 13.0667 5.66666 12.3333 5.66666C11.6 5.66666 11 6.26666 11 6.99999V13C11 13.7333 11.5933 14.3333 12.3333 14.3333Z" stroke="#212121" stroke-linecap="round" stroke-linejoin="round"/>
<path d="M7.66666 14.3333C8.39999 14.3333 8.99999 13.7333 8.99999 13V10.6667C8.99999 9.93334 8.39999 9.33334 7.66666 9.33334C6.93332 9.33334 6.33332 9.93334 6.33332 10.6667V13C6.33332 13.7333 6.92666 14.3333 7.66666 14.3333Z" stroke="#212121" stroke-linecap="round" stroke-linejoin="round"/>
</svg>
