<svg width="20" height="20" viewBox="0 0 20 20" fill="none" xmlns="http://www.w3.org/2000/svg">
<path d="M8.95661 3.16277L5.46318 4.47193C4.65808 4.77297 4 5.72508 4 6.58619V11.7878C4 12.6139 4.54608 13.6991 5.21116 14.1961L8.22153 16.4434C9.20865 17.1855 10.8328 17.1855 11.82 16.4434L14.8304 14.1961C15.4954 13.6991 16.0415 12.6139 16.0415 11.7878V6.58619C16.0415 5.72508 15.3834 4.77297 14.5783 4.47193L11.0849 3.16277C10.4898 2.94574 9.53768 2.94574 8.95661 3.16277Z" stroke="#212121" stroke-linecap="round" stroke-linejoin="round"/>
<path d="M10.0137 9.24655C9.98572 9.24655 9.95071 9.24655 9.9227 9.24655C9.26462 9.22554 8.73956 8.67947 8.73956 8.01439C8.73956 7.3353 9.29263 6.78223 9.97172 6.78223C10.6508 6.78223 11.2039 7.3353 11.2039 8.01439C11.1969 8.68647 10.6718 9.22554 10.0137 9.24655Z" stroke="#212121" stroke-linecap="round" stroke-linejoin="round"/>
<path d="M8.62055 11.2067C7.94847 11.6547 7.94847 12.3898 8.62055 12.8379C9.38365 13.3489 10.6368 13.3489 11.3999 12.8379C12.072 12.3898 12.072 11.6547 11.3999 11.2067C10.6438 10.6956 9.39065 10.6956 8.62055 11.2067Z" stroke="#212121" stroke-linecap="round" stroke-linejoin="round"/>
</svg>
