<svg width="20" height="20" viewBox="0 0 20 20" fill="none" xmlns="http://www.w3.org/2000/svg">
<path d="M10 12C11.1046 12 12 11.1046 12 10C12 8.89543 11.1046 8 10 8C8.89543 8 8 8.89543 8 10C8 11.1046 8.89543 12 10 12Z" stroke="#212121" stroke-miterlimit="10" stroke-linecap="round" stroke-linejoin="round"/>
<path d="M3.33333 10.5867V9.41333C3.33333 8.72 3.9 8.14667 4.6 8.14667C5.80667 8.14667 6.3 7.29333 5.69333 6.24667C5.34667 5.64667 5.55333 4.86667 6.16 4.52L7.31333 3.86C7.84 3.54666 8.52 3.73333 8.83333 4.26L8.90667 4.38666C9.50667 5.43333 10.4933 5.43333 11.1 4.38666L11.1733 4.26C11.4867 3.73333 12.1667 3.54666 12.6933 3.86L13.8467 4.52C14.4533 4.86667 14.66 5.64667 14.3133 6.24667C13.7067 7.29333 14.2 8.14667 15.4067 8.14667C16.1 8.14667 16.6733 8.71333 16.6733 9.41333V10.5867C16.6733 11.28 16.1067 11.8533 15.4067 11.8533C14.2 11.8533 13.7067 12.7067 14.3133 13.7533C14.66 14.36 14.4533 15.1333 13.8467 15.48L12.6933 16.14C12.1667 16.4533 11.4867 16.2667 11.1733 15.74L11.1 15.6133C10.5 14.5667 9.51333 14.5667 8.90667 15.6133L8.83333 15.74C8.52 16.2667 7.84 16.4533 7.31333 16.14L6.16 15.48C5.55333 15.1333 5.34667 14.3533 5.69333 13.7533C6.3 12.7067 5.80667 11.8533 4.6 11.8533C3.9 11.8533 3.33333 11.28 3.33333 10.5867Z" stroke="#212121" stroke-miterlimit="10" stroke-linecap="round" stroke-linejoin="round"/>
</svg>
