<svg width="20" height="20" viewBox="0 0 20 20" fill="none" xmlns="http://www.w3.org/2000/svg">
<path d="M10 11.3333H10.6667C11.4 11.3333 12 10.7333 12 9.99992V3.33325H6C5 3.33325 4.12667 3.88658 3.67334 4.69991" stroke="#212121" stroke-linecap="round" stroke-linejoin="round"/>
<path d="M3.33332 13.3333C3.33332 14.4399 4.22666 15.3333 5.33332 15.3333H5.99999C5.99999 14.5999 6.59999 13.9999 7.33332 13.9999C8.06666 13.9999 8.66666 14.5999 8.66666 15.3333H11.3333C11.3333 14.5999 11.9333 13.9999 12.6667 13.9999C13.4 13.9999 14 14.5999 14 15.3333H14.6667C15.7733 15.3333 16.6667 14.4399 16.6667 13.3333V11.3333H14.6667C14.3 11.3333 14 11.0333 14 10.6666V8.66659C14 8.29992 14.3 7.99992 14.6667 7.99992H15.5266L14.3867 6.00659C14.1467 5.59326 13.7067 5.33325 13.2267 5.33325H12V9.99992C12 10.7333 11.4 11.3333 10.6667 11.3333H9.99999" stroke="#212121" stroke-linecap="round" stroke-linejoin="round"/>
<path d="M7.33333 16.6667C8.06971 16.6667 8.66667 16.0697 8.66667 15.3333C8.66667 14.597 8.06971 14 7.33333 14C6.59695 14 6 14.597 6 15.3333C6 16.0697 6.59695 16.6667 7.33333 16.6667Z" stroke="#212121" stroke-linecap="round" stroke-linejoin="round"/>
<path d="M12.6667 16.6667C13.403 16.6667 14 16.0697 14 15.3333C14 14.597 13.403 14 12.6667 14C11.9303 14 11.3333 14.597 11.3333 15.3333C11.3333 16.0697 11.9303 16.6667 12.6667 16.6667Z" stroke="#212121" stroke-linecap="round" stroke-linejoin="round"/>
<path d="M16.6667 10V11.3333H14.6667C14.3 11.3333 14 11.0333 14 10.6667V8.66667C14 8.3 14.3 8 14.6667 8H15.5267L16.6667 10Z" stroke="#212121" stroke-linecap="round" stroke-linejoin="round"/>
<path d="M3.33332 7.33325H7.33332" stroke="#212121" stroke-linecap="round" stroke-linejoin="round"/>
<path d="M3.33332 9.33325H5.99999" stroke="#212121" stroke-linecap="round" stroke-linejoin="round"/>
<path d="M3.33332 11.3333H4.66666" stroke="#212121" stroke-linecap="round" stroke-linejoin="round"/>
</svg>
