<svg width="20" height="20" viewBox="0 0 20 20" fill="none" xmlns="http://www.w3.org/2000/svg">
<path d="M14.6467 16.6667H5.31333C3.31333 16.6667 3.31333 15.7667 3.31333 14.6667V14C3.31333 13.6333 3.61333 13.3333 3.98 13.3333H15.98C16.3467 13.3333 16.6467 13.6333 16.6467 14V14.6667C16.6467 15.7667 16.6467 16.6667 14.6467 16.6667Z" stroke="#212121" stroke-linecap="round" stroke-linejoin="round"/>
<path d="M15.8133 10.6667V13.3333H4.18V10.6667C4.18 8.10666 5.98667 5.96666 8.39334 5.45333C8.75334 5.37333 9.12667 5.33333 9.51334 5.33333H10.48C10.8667 5.33333 11.2467 5.37333 11.6067 5.45333C14.0133 5.97333 15.8133 8.10666 15.8133 10.6667Z" stroke="#212121" stroke-linecap="round" stroke-linejoin="round"/>
<path d="M11.6667 5C11.6667 5.16 11.6467 5.30666 11.6067 5.45333C11.2467 5.37333 10.8667 5.33333 10.48 5.33333H9.51332C9.12666 5.33333 8.75332 5.37333 8.39332 5.45333C8.35332 5.30666 8.33332 5.16 8.33332 5C8.33332 4.08 9.07999 3.33333 9.99999 3.33333C10.92 3.33333 11.6667 4.08 11.6667 5Z" stroke="#212121" stroke-linecap="round" stroke-linejoin="round"/>
<path d="M12 9.33333H8" stroke="#212121" stroke-linecap="round" stroke-linejoin="round"/>
</svg>
