<svg width="20" height="20" viewBox="0 0 20 20" fill="none" xmlns="http://www.w3.org/2000/svg">
<path d="M6.48666 15.1333C7.03332 14.5466 7.86666 14.5933 8.34666 15.2333L9.01999 16.1333C9.55999 16.8466 10.4333 16.8466 10.9733 16.1333L11.6467 15.2333C12.1267 14.5933 12.96 14.5466 13.5067 15.1333C14.6933 16.4 15.66 15.98 15.66 14.2066V6.69331C15.6667 4.00665 15.04 3.33331 12.52 3.33331H7.47999C4.95999 3.33331 4.33332 4.00665 4.33332 6.69331V14.2C4.33332 15.98 5.30666 16.3933 6.48666 15.1333Z" stroke="#212121" stroke-linecap="round" stroke-linejoin="round"/>
<path d="M7.39737 9.33333H7.40336" stroke="#212121" stroke-linecap="round" stroke-linejoin="round"/>
<path d="M9.26562 9.33331H12.9323" stroke="#212121" stroke-linecap="round" stroke-linejoin="round"/>
<path d="M7.39737 6.66665H7.40336" stroke="#212121" stroke-linecap="round" stroke-linejoin="round"/>
<path d="M9.26562 6.66669H12.9323" stroke="#212121" stroke-linecap="round" stroke-linejoin="round"/>
</svg>
