<svg width="20" height="20" viewBox="0 0 20 20" fill="none" xmlns="http://www.w3.org/2000/svg">
<path d="M14.0933 16.4133C13.5067 16.5866 12.8133 16.6666 12 16.6666H8C7.18667 16.6666 6.49333 16.5866 5.90667 16.4133C6.05333 14.68 7.83333 13.3133 10 13.3133C12.1667 13.3133 13.9467 14.68 14.0933 16.4133Z" stroke="#212121" stroke-linecap="round" stroke-linejoin="round"/>
<path d="M12 3.33331H7.99999C4.66666 3.33331 3.33332 4.66665 3.33332 7.99998V12C3.33332 14.52 4.09332 15.9 5.90666 16.4133C6.05332 14.68 7.83332 13.3133 9.99999 13.3133C12.1667 13.3133 13.9467 14.68 14.0933 16.4133C15.9067 15.9 16.6667 14.52 16.6667 12V7.99998C16.6667 4.66665 15.3333 3.33331 12 3.33331ZM9.99999 11.4466C8.67999 11.4466 7.61332 10.3733 7.61332 9.05332C7.61332 7.73332 8.67999 6.66665 9.99999 6.66665C11.32 6.66665 12.3867 7.73332 12.3867 9.05332C12.3867 10.3733 11.32 11.4466 9.99999 11.4466Z" stroke="#212121" stroke-linecap="round" stroke-linejoin="round"/>
<path d="M12.3867 9.05336C12.3867 10.3734 11.32 11.4467 10 11.4467C8.68 11.4467 7.61333 10.3734 7.61333 9.05336C7.61333 7.73336 8.68 6.66669 10 6.66669C11.32 6.66669 12.3867 7.73336 12.3867 9.05336Z" stroke="#212121" stroke-linecap="round" stroke-linejoin="round"/>
</svg>
