<svg width="20" height="20" viewBox="0 0 20 20" fill="none" xmlns="http://www.w3.org/2000/svg">
<path d="M7.99999 16.6667H12C15.3333 16.6667 16.6667 15.3334 16.6667 12V8.00004C16.6667 4.66671 15.3333 3.33337 12 3.33337H7.99999C4.66666 3.33337 3.33332 4.66671 3.33332 8.00004V12C3.33332 15.3334 4.66666 16.6667 7.99999 16.6667Z" stroke="#212121" stroke-linecap="round" stroke-linejoin="round"/>
<path d="M12.3802 14.3333V11.7333" stroke="#212121" stroke-miterlimit="10" stroke-linecap="round" stroke-linejoin="round"/>
<path d="M12.3802 6.96663V5.66663" stroke="#212121" stroke-miterlimit="10" stroke-linecap="round" stroke-linejoin="round"/>
<path d="M12.3798 10.4333C13.3371 10.4333 14.1132 9.6573 14.1132 8.70001C14.1132 7.74271 13.3371 6.96667 12.3798 6.96667C11.4225 6.96667 10.6465 7.74271 10.6465 8.70001C10.6465 9.6573 11.4225 10.4333 12.3798 10.4333Z" stroke="#212121" stroke-miterlimit="10" stroke-linecap="round" stroke-linejoin="round"/>
<path d="M7.6198 14.3333V13.0333" stroke="#212121" stroke-miterlimit="10" stroke-linecap="round" stroke-linejoin="round"/>
<path d="M7.6198 8.26663V5.66663" stroke="#212121" stroke-miterlimit="10" stroke-linecap="round" stroke-linejoin="round"/>
<path d="M7.62 13.0333C8.5773 13.0333 9.35334 12.2573 9.35334 11.3C9.35334 10.3427 8.5773 9.56665 7.62 9.56665C6.66271 9.56665 5.88667 10.3427 5.88667 11.3C5.88667 12.2573 6.66271 13.0333 7.62 13.0333Z" stroke="#212121" stroke-miterlimit="10" stroke-linecap="round" stroke-linejoin="round"/>
</svg>
