<svg width="20" height="20" viewBox="0 0 20 20" fill="none" xmlns="http://www.w3.org/2000/svg">
<g clip-path="url(#clip0_42_4348)">
<path d="M14.5034 11.8524C14.4842 11.8224 14.3967 11.7811 14.2661 11.7194C14.2338 11.7042 14.1992 11.6878 14.1587 11.6682L14.1554 11.6669C14.0227 11.5994 13.5799 11.3826 13.2127 11.2091C12.9724 11.0954 12.7638 10.9996 12.6937 10.9745C12.6145 10.946 12.5482 10.9242 12.5039 10.9292C12.4747 10.9325 12.4433 10.9566 12.4035 11.0171C12.3455 11.1041 12.2464 11.2317 12.1389 11.3633C11.9651 11.5762 11.7784 11.7919 11.7009 11.8799C11.6091 11.9843 11.5123 12.0429 11.3931 12.0573C11.2851 12.0703 11.17 12.0425 11.0319 11.9746C11.0082 11.9627 10.9545 11.9394 10.8896 11.9114C10.5735 11.775 9.9577 11.5093 9.24874 10.8817C8.99411 10.6563 8.77183 10.4121 8.58719 10.1841C8.28776 9.81423 8.08578 9.48536 8.00555 9.34685C7.81446 9.01914 7.97682 8.85676 8.12674 8.70682C8.18701 8.64667 8.2584 8.56166 8.32933 8.47641C8.3715 8.42573 8.41381 8.37486 8.4461 8.33764C8.52421 8.24681 8.55895 8.17571 8.60589 8.07981C8.61576 8.05962 8.6262 8.03835 8.63838 8.01404C8.65843 7.97364 8.66346 7.93675 8.66001 7.90339C8.65599 7.86451 8.64072 7.82566 8.62193 7.78908C8.58474 7.71415 8.38219 7.22618 8.19673 6.77824C8.12147 6.59644 8.04924 6.42201 7.94709 6.17864C7.83469 5.91067 7.74351 5.9166 7.67358 5.92114C7.65176 5.92256 7.63083 5.92392 7.61523 5.92392C7.55417 5.92392 7.4842 5.91948 7.41168 5.91489C7.34455 5.91064 7.27485 5.90622 7.19923 5.90622C7.13592 5.90622 7.04967 5.91935 6.95889 5.96185C6.88897 5.99457 6.81567 6.04512 6.74653 6.12109C6.73748 6.13081 6.72027 6.14881 6.70322 6.16675C6.4916 6.3892 6.03028 6.87412 6.03028 7.80135C6.03028 8.80402 6.77289 9.78269 6.88115 9.92536C6.89443 9.94267 6.91408 9.97067 6.94031 10.0091C7.22622 10.4272 8.5406 12.3495 10.5156 13.1209C12.2968 13.816 12.582 13.7469 12.8368 13.6853C12.9001 13.67 12.9619 13.655 13.0426 13.6476C13.2377 13.6292 13.5731 13.4843 13.8671 13.279C14.0976 13.1181 14.2951 12.9248 14.3629 12.7364C14.4361 12.5325 14.4778 12.3402 14.4975 12.1804C14.5202 11.9959 14.5186 11.8778 14.5034 11.8524ZM14.4102 11.414C14.5963 11.5019 14.7204 11.5605 14.7921 11.6787C14.8393 11.7575 14.8652 11.9621 14.8333 12.2214C14.8114 12.3999 14.764 12.6167 14.6802 12.8502C14.5863 13.1112 14.3411 13.3592 14.0601 13.5554C13.7215 13.7918 13.319 13.9603 13.073 13.9834C13.0183 13.9884 12.9679 14.0007 12.9161 14.0132C12.6123 14.0867 12.2722 14.169 10.3926 13.4356C8.32074 12.6264 6.95782 10.633 6.66136 10.1994C6.63618 10.1626 6.61914 10.1377 6.61451 10.1317L6.6121 10.129C6.49414 9.97349 5.69181 8.91454 5.69181 7.80135C5.69181 6.74012 6.2175 6.18755 6.45865 5.93406C6.47074 5.92135 6.48188 5.90965 6.49673 5.89372C6.59807 5.78237 6.70876 5.70666 6.8161 5.65643C6.96084 5.58867 7.0983 5.56775 7.19923 5.56775C7.27513 5.56775 7.35545 5.57283 7.43284 5.57774C7.49473 5.58167 7.55446 5.58545 7.61523 5.58545C7.62996 5.58545 7.64098 5.58473 7.65242 5.58399C7.82659 5.57267 8.05365 5.5579 8.25909 6.04774C8.2809 6.09971 8.39212 6.36831 8.50874 6.64999C8.69116 7.09059 8.88909 7.56862 8.92337 7.63769C8.95843 7.70635 8.98693 7.78312 8.99582 7.86901C9.00538 7.96128 8.99224 8.05978 8.94087 8.1633C8.93015 8.18469 8.91882 8.20711 8.90865 8.22789C8.85023 8.34721 8.80695 8.43563 8.70254 8.55704C8.65966 8.60645 8.62372 8.64952 8.58846 8.6919C8.51105 8.78494 8.4339 8.87767 8.36573 8.94575C8.30408 9.0074 8.23763 9.07457 8.29772 9.17762C8.37385 9.30905 8.56544 9.62103 8.84895 9.97123C9.02412 10.1876 9.23386 10.4182 9.47217 10.6291C10.1384 11.219 10.723 11.4713 11.0232 11.6008C11.0825 11.6263 11.1306 11.6471 11.1799 11.6718C11.2572 11.7097 11.3129 11.7264 11.3535 11.7215C11.3827 11.7179 11.4125 11.6965 11.447 11.6571C11.528 11.5652 11.7179 11.3455 11.8771 11.1505C11.9777 11.0274 12.0696 10.9098 12.1218 10.8313C12.2258 10.6739 12.3383 10.6079 12.4668 10.5934C12.5802 10.5806 12.686 10.6136 12.8074 10.6571C12.8937 10.6881 13.1116 10.7877 13.3568 10.9037C13.7364 11.0831 14.1804 11.3002 14.3087 11.3654C14.3424 11.3818 14.3774 11.3985 14.4102 11.414Z" stroke="#212121" stroke-width="0.5"/>
<path d="M18.002 9.7546C18.002 11.8944 17.1274 13.8325 15.7133 15.2356C14.2997 16.6381 12.3475 17.5058 10.1911 17.5058C9.51683 17.5058 8.86326 17.4211 8.23967 17.2616C7.62071 17.1032 7.03113 16.8708 6.48008 16.5743L2.31786 17.8988L2 18L2.10698 17.684L3.46023 13.687C3.11861 13.1117 2.84911 12.4884 2.66489 11.83C2.47949 11.1675 2.38013 10.4703 2.38013 9.7519C2.38013 7.6117 3.25482 5.67341 4.66938 4.27024C6.08331 2.86768 8.03618 2 10.1936 2C12.3491 2 14.301 2.86799 15.7143 4.27129C17.1277 5.67478 18.002 7.61344 18.002 9.7546ZM15.4753 14.9963C16.8274 13.6548 17.6635 11.8013 17.6635 9.7546C17.6635 7.70646 16.8277 5.85241 15.4763 4.51057C14.1247 3.16852 12.257 2.33844 10.1936 2.33844C8.1282 2.33844 6.25953 3.16823 4.90735 4.50952C3.55488 5.85111 2.71858 7.70476 2.71858 9.7519C2.71858 10.4415 2.81332 11.1084 2.9901 11.7402C3.17331 12.3949 3.44437 13.0129 3.78922 13.5804L3.83017 13.6477L3.80508 13.7218L2.53391 17.4764L6.44708 16.2311L6.51637 16.209L6.5793 16.2437C7.12295 16.5427 7.70742 16.7762 8.32294 16.9337C8.91949 17.0863 9.54514 17.1673 10.191 17.1673C12.2554 17.1673 14.1235 16.3375 15.4753 14.9963Z" stroke="#212121" stroke-width="0.5"/>
</g>
<defs>
<clipPath id="clip0_42_4348">
<rect width="20" height="20" fill="white"/>
</clipPath>
</defs>
</svg>
