<svg width="20" height="20" viewBox="0 0 20 20" fill="none" xmlns="http://www.w3.org/2000/svg">
<path d="M18.75 9.73625H1.24999C0.89999 9.73625 0.666656 9.50291 0.666656 9.15291C0.666656 8.80291 0.89999 8.56958 1.24999 8.56958H18.75C19.1 8.56958 19.3333 8.80291 19.3333 9.15291C19.3333 9.50291 19.1 9.73625 18.75 9.73625Z" fill="white"/>
<path d="M4.74997 9.73629C4.69164 9.73629 4.57497 9.73629 4.51664 9.67796C4.22497 9.56129 4.10831 9.21129 4.22497 8.91963L6.55831 3.66963C6.67497 3.37796 7.02497 3.26129 7.31664 3.37796C7.60831 3.49463 7.72497 3.84463 7.60831 4.13629L5.27497 9.38629C5.15831 9.61962 4.98331 9.73629 4.74997 9.73629Z" fill="white"/>
<path d="M15.25 9.73629C15.0166 9.73629 14.8416 9.61962 14.725 9.38629L12.3916 4.13629C12.275 3.84463 12.3916 3.49463 12.6833 3.37796C12.975 3.26129 13.325 3.37796 13.4416 3.66963L15.775 8.91963C15.8916 9.21129 15.775 9.56129 15.4833 9.67796C15.425 9.73629 15.3083 9.73629 15.25 9.73629Z" fill="white"/>
<path d="M2.125 9.15308V9.26974L3.40833 15.9197C3.58333 16.7364 4.28333 17.3197 5.15833 17.3197H14.9C15.7167 17.3197 16.475 16.7364 16.5917 15.9197L17.875 9.26974C17.875 9.21141 17.875 9.21141 17.875 9.15308H2.125ZM7.2 14.9864C7.14167 14.9864 7.14167 14.9864 7.08333 14.9864C6.79167 14.9864 6.55833 14.8114 6.5 14.5197L5.91667 11.6031C5.85833 11.2531 6.03333 10.9614 6.38333 10.9031C6.675 10.8447 7.025 11.0197 7.08333 11.3697L7.66667 14.2864C7.725 14.5781 7.49167 14.9281 7.2 14.9864ZM10.5833 14.4031C10.5833 14.6947 10.2917 14.9864 10 14.9864C9.70833 14.9864 9.41667 14.6947 9.41667 14.4031V11.4864C9.41667 11.1947 9.70833 10.9031 10 10.9031C10.2917 10.9031 10.5833 11.1947 10.5833 11.4864V14.4031ZM14.0833 11.6031L13.5 14.5197C13.4417 14.8114 13.2083 14.9864 12.9167 14.9864C12.8583 14.9864 12.8583 14.9864 12.8 14.9864C12.5083 14.9281 12.275 14.6364 12.3333 14.2864L12.9167 11.3697C12.975 11.0781 13.2667 10.8447 13.6167 10.9031C13.9083 10.9614 14.1417 11.2531 14.0833 11.6031Z" fill="white"/>
</svg>
