<svg width="500" height="387" viewBox="0 0 500 387" fill="none" xmlns="http://www.w3.org/2000/svg">
<g clip-path="url(#clip0_461_5474)">
<path d="M448.447 307.965C441.173 308.123 433.759 310.254 426.784 308.568C412.743 305.173 416.076 278.645 391.072 269.192C365.843 259.655 346.501 278.619 320.008 271.68C303.982 267.479 292.617 255.895 284.617 243.884C276.617 231.873 270.902 218.787 260.982 207.758C245.708 190.771 225.393 193.113 210.982 208.546C193.282 227.496 178.444 240.062 155.377 237.143C128.484 233.739 89.6719 202.417 77.8147 271.904C73.8829 294.954 36.5062 299.317 23.1432 317.664C7.68438 338.887 12.1138 368.325 33.4065 385.919L452.123 385.694C469.986 375.933 484.921 360.738 486 343.303C487.079 325.867 469.986 307.493 448.447 307.96V307.965Z" fill="#FFF4EB"/>
<path d="M280.995 383.977H274.144C269.847 382.079 265.611 379.495 262.014 376.461C258.985 373.916 252.966 365.41 257.514 360.971C259.266 359.263 262.344 359.668 264.629 360.536C268.253 361.909 270.494 365.454 272.489 368.778C273.048 369.707 273.607 370.684 274.162 371.675C276.438 375.735 278.714 380.164 280.995 383.973V383.977Z" fill="#048C8C"/>
<path d="M306.986 337.055C306.11 340.529 304.406 343.725 302.962 347.006C301.509 350.312 300.162 353.795 298.999 357.366C296.181 366.013 294.455 375.229 294.896 383.977H286.292C284.289 377.659 285.724 371.332 285.619 364.706C285.574 362.064 285.689 359.426 285.839 356.785C285.883 355.935 285.936 355.076 285.988 354.222C286.574 344.734 287.336 334.717 292.729 326.893C293.786 325.37 295.058 323.908 296.762 323.172C300.043 321.746 304.107 323.6 305.978 326.646C307.849 329.702 307.867 333.594 306.977 337.059L306.986 337.055Z" fill="#048C8C"/>
<path d="M325.09 349.384C324.513 350.599 323.637 351.642 322.743 352.637C318.613 357.247 313.889 361.302 309.966 366.08C309.196 367.026 308.451 368.056 307.751 369.144C305.871 372.085 304.33 375.489 303.463 378.892C303.216 379.83 303.027 380.772 302.895 381.701C302.789 382.472 302.719 383.233 302.692 383.978H294.186C293.86 378.769 294.529 372.785 295.331 369.179C296.268 364.952 297.44 361.007 299.007 357.366C301.781 350.889 305.823 345.368 312.057 340.895C313.449 339.904 314.955 339.006 316.623 338.662C319.388 338.085 322.426 339.195 324.174 341.401C325.918 343.616 326.292 346.834 325.095 349.384H325.09Z" fill="#036969"/>
<path d="M324.769 374.528C321.04 376.426 316.831 377.126 312.894 378.535C308.963 379.953 306.801 382.119 305.704 383.977H299.479C300.346 378.332 303.441 373.014 307.747 369.143C311.494 365.766 316.166 363.481 321.101 363.01C322.792 362.852 324.54 362.878 326.134 363.472C327.719 364.067 329.137 365.317 329.599 366.955C330.467 370.081 327.657 373.062 324.769 374.533V374.528Z" fill="#048C8C"/>
<path d="M286.296 383.978H279.723C277.799 379.989 275.879 375.881 274.166 371.68C270.771 363.332 268.222 354.632 268.266 345.848C268.275 343.862 268.425 341.833 269.23 340.019C270.027 338.2 271.568 336.615 273.519 336.228C275.628 335.801 277.834 336.857 279.296 338.434C280.757 340.019 281.616 342.057 282.36 344.087C283.866 348.182 285.671 352.382 285.843 356.785C286.195 365.904 286.662 373.146 286.296 383.978Z" fill="#036969"/>
<path d="M97.1751 117.774C95.3831 117.774 93.688 118.14 92.1909 118.791C93.0847 117.039 93.5779 115.106 93.5779 113.072C93.5779 105.204 86.1633 98.8237 77.0183 98.8237C67.8734 98.8237 60.4588 105.204 60.4588 113.072C60.4588 113.257 60.4588 113.437 60.472 113.618C59.4858 113.265 58.407 113.072 57.2755 113.072C53.6122 113.072 50.5037 115.101 49.381 117.924C48.7381 117.822 48.0777 117.774 47.404 117.774C41.2751 117.774 36.3086 122.049 36.3086 127.32C36.3086 132.59 41.2751 136.865 47.404 136.865C50.9925 136.865 54.1802 135.399 56.21 133.127C58.2309 135.456 61.4627 136.962 65.0995 136.962C68.0539 136.962 70.7353 135.967 72.7211 134.351C74.7068 135.972 77.3926 136.962 80.3426 136.962C83.7329 136.962 86.7709 135.65 88.8051 133.589C90.8392 135.597 93.8332 136.87 97.1707 136.87C103.3 136.87 108.266 132.594 108.266 127.324C108.266 122.054 103.3 117.778 97.1707 117.778L97.1751 117.774Z" fill="#FFF4EB"/>
<path d="M388.567 52.0739C386.727 52.0739 384.988 52.4481 383.451 53.1174C384.367 51.3209 384.878 49.3352 384.878 47.2482C384.878 39.1688 377.269 32.6216 367.882 32.6216C358.495 32.6216 350.887 39.1688 350.887 47.2482C350.887 47.4375 350.887 47.6225 350.9 47.8074C349.887 47.4463 348.782 47.2482 347.62 47.2482C343.86 47.2482 340.668 49.3308 339.514 52.228C338.854 52.1267 338.18 52.0739 337.484 52.0739C331.197 52.0739 326.094 56.4636 326.094 61.8748C326.094 67.2861 331.192 71.6758 337.484 71.6758C341.165 71.6758 344.441 70.17 346.523 67.8365C348.602 70.2273 351.913 71.7727 355.646 71.7727C358.676 71.7727 361.432 70.7512 363.47 69.0913C365.509 70.7512 368.265 71.7727 371.295 71.7727C374.777 71.7727 377.89 70.4298 379.982 68.3076C382.069 70.3681 385.142 71.6714 388.572 71.6714C394.859 71.6714 399.962 67.2817 399.962 61.8704C399.962 56.4592 394.864 52.0695 388.572 52.0695L388.567 52.0739Z" fill="#FFF4EB"/>
<path d="M158.063 91.0842C156.751 91.0842 155.51 91.3528 154.409 91.8283C155.065 90.547 155.426 89.1293 155.426 87.6367C155.426 81.8688 149.993 77.1929 143.291 77.1929C136.59 77.1929 131.157 81.8688 131.157 87.6367C131.157 87.7688 131.157 87.9053 131.166 88.0374C130.444 87.7776 129.651 87.6367 128.823 87.6367C126.142 87.6367 123.861 89.1249 123.038 91.1943C122.567 91.1238 122.082 91.0842 121.589 91.0842C117.098 91.0842 113.457 94.2191 113.457 98.0805C113.457 101.942 117.098 105.077 121.589 105.077C124.218 105.077 126.556 104.002 128.044 102.338C129.528 104.042 131.892 105.147 134.56 105.147C136.727 105.147 138.69 104.421 140.148 103.232C141.605 104.416 143.573 105.147 145.735 105.147C148.223 105.147 150.446 104.187 151.939 102.673C153.431 104.143 155.624 105.077 158.072 105.077C162.563 105.077 166.204 101.946 166.204 98.0805C166.204 94.2147 162.563 91.0842 158.072 91.0842H158.063Z" fill="#FFF4EB"/>
<path d="M446.763 86.9008C445.416 86.9008 444.139 87.1782 443.012 87.6669C443.681 86.3505 444.056 84.8931 444.056 83.3652C444.056 77.4433 438.477 72.644 431.6 72.644C424.722 72.644 419.144 77.4433 419.144 83.3652C419.144 83.5017 419.144 83.6382 419.152 83.7747C418.413 83.5105 417.598 83.3652 416.748 83.3652C413.992 83.3652 411.654 84.8931 410.809 87.0153C410.325 86.9404 409.831 86.9008 409.321 86.9008C404.711 86.9008 400.973 90.115 400.973 94.082C400.973 98.0491 404.711 101.263 409.321 101.263C412.02 101.263 414.419 100.163 415.943 98.4498C417.466 100.202 419.892 101.334 422.631 101.334C424.854 101.334 426.871 100.585 428.368 99.37C429.865 100.59 431.881 101.334 434.105 101.334C436.659 101.334 438.939 100.347 440.472 98.7976C442.004 100.308 444.254 101.263 446.768 101.263C451.378 101.263 455.116 98.0491 455.116 94.082C455.116 90.115 451.378 86.9008 446.768 86.9008H446.763Z" fill="#FFF4EB"/>
<path d="M110.394 70.6453C109.272 70.6453 108.206 70.8742 107.268 71.2837C107.827 70.1874 108.14 68.9722 108.14 67.6997C108.14 62.764 103.49 58.7661 97.7578 58.7661C92.0252 58.7661 87.3756 62.7684 87.3756 67.6997C87.3756 67.8142 87.3757 67.9287 87.3845 68.0431C86.768 67.823 86.09 67.6997 85.3811 67.6997C83.0872 67.6997 81.1367 68.9722 80.4322 70.7422C80.0315 70.6805 79.6176 70.6453 79.195 70.6453C75.3512 70.6453 72.2383 73.3267 72.2383 76.6333C72.2383 79.9399 75.3512 82.6213 79.195 82.6213C81.4449 82.6213 83.4438 81.7011 84.7163 80.279C85.9843 81.7363 88.0097 82.683 90.2904 82.683C92.1397 82.683 93.826 82.0622 95.072 81.0451C96.3181 82.0622 98 82.683 99.8536 82.683C101.98 82.683 103.882 81.8596 105.159 80.5696C106.436 81.8288 108.312 82.6257 110.408 82.6257C114.251 82.6257 117.364 79.9443 117.364 76.6377C117.364 73.3311 114.251 70.6497 110.408 70.6497L110.394 70.6453Z" fill="#FFF4EB"/>
<path d="M105.684 386.919L498.49 386.919C499.324 386.919 500 386.243 500 385.409V384.714C500 383.879 499.324 383.203 498.49 383.203L105.684 383.203C104.85 383.203 104.174 383.879 104.174 384.714V385.409C104.174 386.243 104.85 386.919 105.684 386.919Z" fill="#424249"/>
<path d="M1.51511 386.919H92.1148C92.9489 386.919 93.625 386.243 93.625 385.409V384.714C93.625 383.879 92.9489 383.203 92.1148 383.203H1.51511C0.681038 383.203 0.00488281 383.879 0.00488281 384.714V385.409C0.00488281 386.243 0.681038 386.919 1.51511 386.919Z" fill="#424249"/>
<path d="M278.656 103.196C236.026 67.5589 173.764 82.1679 139.17 113.403C110.256 139.512 111.841 164.252 132.944 178.637C145.867 187.447 169.189 184.008 184.894 159.281C193.41 145.874 221.192 137.267 234.806 152.646C275.367 198.454 188.267 228.808 183.067 301.88C182.235 313.557 191.402 323.521 203.11 323.569C212.373 323.609 220.567 317.361 222.751 308.357C231.117 273.873 281.416 244.382 301.934 206.882C319.854 174.124 312.29 131.318 278.656 103.201V103.196Z" fill="#DB7D31"/>
<path d="M201.547 335.708C187.902 335.708 176.842 346.769 176.842 360.409C176.842 374.054 187.902 385.114 201.547 385.114C215.192 385.114 226.247 374.054 226.247 360.413C226.247 346.769 215.187 335.708 201.547 335.708Z" fill="#DB7D31"/>
<path d="M361.536 324.78C370.998 324.78 377.202 317.127 378.113 307.093L393.321 115.731C393.321 96.9837 379.051 81.7847 361.444 81.7847C343.836 81.7847 329.566 96.9837 329.566 115.731L344.964 307.119C345.888 317.14 352.083 324.78 361.536 324.78Z" fill="#DB7D31"/>
<path d="M361.445 335.074C347.8 335.074 336.744 346.134 336.744 359.774C336.744 373.419 347.804 384.479 361.445 384.479C375.089 384.479 386.145 373.419 386.145 359.779C386.145 346.134 375.085 335.074 361.445 335.074Z" fill="#DB7D31"/>
<path d="M270.95 103.196C228.321 67.5589 166.059 82.1679 131.465 113.403C102.55 139.512 104.136 164.252 125.239 178.637C138.162 187.447 161.484 184.008 177.189 159.281C185.705 145.874 213.487 137.267 227.101 152.646C267.661 198.454 180.562 228.808 175.362 301.88C174.53 313.557 183.697 323.521 195.404 323.569C204.668 323.609 212.862 317.361 215.046 308.357C223.412 273.873 273.711 244.382 294.229 206.882C312.149 174.124 304.585 131.318 270.95 103.201V103.196Z" fill="#F4A75B"/>
<path d="M193.846 335.708C180.201 335.708 169.141 346.768 169.141 360.408C169.141 374.053 180.201 385.113 193.846 385.113C207.49 385.113 218.546 374.053 218.546 360.413C218.546 346.768 207.486 335.708 193.846 335.708Z" fill="#F4A75B"/>
<path d="M353.837 324.78C363.299 324.78 369.503 317.127 370.414 307.093L385.622 115.731C385.622 96.9837 371.352 81.7847 353.745 81.7847C336.137 81.7847 321.867 96.9837 321.867 115.731L337.264 307.119C338.189 317.14 344.384 324.78 353.837 324.78Z" fill="#F4A75B"/>
<path d="M353.74 335.074C340.095 335.074 329.035 346.134 329.035 359.774C329.035 373.419 340.095 384.479 353.74 384.479C367.385 384.479 378.441 373.419 378.441 359.779C378.441 346.134 367.381 335.074 353.74 335.074Z" fill="#F4A75B"/>
<g style="mix-blend-mode:screen">
<path d="M126.533 148.635C130.945 140.423 136.916 133.066 143.573 126.576C151.274 119.069 160.264 112.522 170.51 108.991C174.367 107.661 172.707 101.501 168.815 102.844C148.724 109.77 131.002 126.849 121.03 145.416C119.088 149.031 124.592 152.254 126.533 148.635Z" fill="#666666"/>
</g>
<g style="mix-blend-mode:screen">
<path d="M330.972 128.416C332.019 146.019 333.274 163.613 334.758 181.185C335.102 185.245 341.477 185.28 341.134 181.185C339.65 163.613 338.395 146.019 337.347 128.416C337.105 124.339 330.729 124.312 330.972 128.416Z" fill="#666666"/>
</g>
<g style="mix-blend-mode:screen">
<path d="M183.165 367.484C177.736 359.889 182.531 348.037 191.794 346.601C195.101 346.086 193.697 341.062 190.408 341.573C177.982 343.502 171.413 359.977 178.66 370.117C180.593 372.825 185.12 370.223 183.165 367.484Z" fill="#666666"/>
</g>
<g style="mix-blend-mode:screen">
<path d="M343.264 367.484C337.835 359.889 342.63 348.037 351.894 346.601C355.201 346.086 353.796 341.062 350.507 341.573C338.082 343.502 331.513 359.977 338.76 370.117C340.693 372.825 345.219 370.223 343.264 367.484Z" fill="#666666"/>
</g>
<g style="mix-blend-mode:screen">
<path d="M184.635 104.033C188.673 102.012 192.891 101.017 197.413 100.99C201.512 100.968 201.521 94.5928 197.413 94.6148C191.755 94.6456 186.467 96.0061 181.421 98.529C177.754 100.365 180.977 105.864 184.64 104.033H184.635Z" fill="#666666"/>
</g>
<g style="mix-blend-mode:screen">
<path d="M335.661 192.612L336.312 202.465C336.581 206.538 342.956 206.569 342.688 202.465L342.036 192.612C341.768 188.539 335.392 188.508 335.661 192.612Z" fill="#666666"/>
</g>
<path d="M165.857 209.36C165.857 209.36 166.54 204.174 167.68 203.945C168.821 203.716 168.305 206.569 168.821 206.569C169.336 206.569 171.216 202.065 172.07 201.95C172.924 201.836 174.522 204.574 173.554 207.027C172.585 209.479 169.45 211.417 169.393 212.442C169.336 213.468 165.857 209.365 165.857 209.365V209.36Z" fill="#FFCBC7"/>
<path d="M167.186 254.082C167.186 254.082 171.29 250.832 172.267 251.466C173.245 252.096 170.889 253.787 171.259 254.143C171.629 254.5 176.115 252.576 176.807 253.091C177.498 253.606 176.741 256.679 174.337 257.767C171.933 258.85 168.331 258.058 167.578 258.758C166.825 259.458 167.186 254.086 167.186 254.086V254.082Z" fill="#FFCBC7"/>
<path d="M139.466 241.119C145.163 240.494 151.838 236.769 157.091 232.427C161.049 229.156 170.872 212.504 170.872 212.504L165.523 208.352L151.913 225.396C150.227 227.672 134.997 230.82 133.447 233.828C131.417 237.759 133.861 241.735 139.462 241.123L139.466 241.119Z" fill="#F97D97"/>
<path d="M84.8333 347.226C85.1327 344.117 86.0617 340.599 86.8719 337.746C93.243 339.802 99.0373 342.246 105.488 343.461C112.546 344.791 122.236 347.758 127.317 341.964C138.254 329.499 143.807 312.323 146.572 296.173C141.728 293.505 136.881 290.92 132.007 288.34C110.718 303.966 121.14 313.067 116.75 333.867C111.652 334.351 107.231 334.567 101.952 334.034C97.3113 333.563 91.6975 332.964 86.8675 332.74C85.5422 332.084 84.6352 332.423 83.2703 332.634C82.3148 336.522 80.0385 345.231 84.8289 347.23L84.8333 347.226Z" fill="#FFCBC7"/>
<path d="M86.344 332.387C84.4155 331.947 82.4606 332.216 80.5937 332.599C80.2679 332.665 80.2943 332.77 80.3075 333.052C80.356 333.99 80.5057 335.082 80.6069 336.042C80.629 336.24 80.6246 336.249 80.8359 336.368C81.4347 336.698 81.4567 337.275 81.2762 338.124C80.7611 340.599 81.4391 345.922 82.1084 347.789C84.4287 354.252 85.437 345.614 85.4942 343.016C81.9102 338.948 83.4292 336.178 86.344 332.392V332.387Z" fill="#26262D"/>
<path d="M130.968 376.245C130.312 379.847 130.955 379.825 132.527 381.736C137.982 382.282 142.891 382.312 145.282 379.935C141.535 378.777 137.85 377.601 135.842 375.999C136.009 367.906 137.784 360.055 140.368 352.218C141.76 347.978 143.38 343.738 145.115 339.467C146.031 337.226 146.625 334.853 146.836 332.436C148.47 314.111 147.743 295.451 144.895 278.033H129.185C120.63 296.803 136.15 310.544 134.75 336.632C132.993 341.867 131.69 347.067 130.898 352.218C129.718 359.937 129.691 368.69 130.972 376.245H130.968Z" fill="#FFCBC7"/>
<path d="M130.814 377.206C129.995 380.481 130.466 382.375 131.197 384.197H134.975C134.975 384.197 135.6 382.648 136.415 382.956C140.144 384.382 147.29 385.219 148.439 383.383C149.456 381.754 143.772 379.469 143.772 379.469C142.068 382.247 137.907 381.005 130.814 377.206Z" fill="#26262D"/>
<path d="M103.334 323.696C103.334 323.696 107.755 328.579 111.911 327.571C111.911 327.571 116.513 334.545 123.742 329.728C129.219 333.119 134.692 333.119 140.17 329.728C147.39 334.545 152 327.571 152 327.571C156.157 328.583 160.573 323.696 160.573 323.696C156.606 305.028 145.678 287.508 144.991 273.062L126.278 272.714C116.213 281.01 115.967 308.149 103.33 323.696H103.334Z" fill="#212121"/>
<path d="M146.286 279.918C140.047 282.586 130.365 280.239 121.317 278.813C120.644 278.707 120.243 277.998 120.529 277.373C123.285 271.35 123.558 263.759 122.938 257.124C120.054 241.859 121.238 236.839 129.626 233.092L134.592 232.767C134.354 232.494 139.427 235.501 143.997 240.749C144.455 241.278 147.229 244.712 146.251 250.105C144.565 259.431 143.649 260.959 147.916 276.391C148.312 277.813 147.629 279.341 146.278 279.922L146.286 279.918Z" fill="#ED5D75"/>
<path d="M134.566 232.563C135.261 237.072 131.074 235.72 128.6 233.026L128.833 228.019L129 224.805V224.77L129.036 223.775L129.3 223.81L133.276 224.11L134.006 228.816L134.57 232.563H134.566Z" fill="#FFCBC7"/>
<path d="M134.002 228.816C133.803 228.882 133.57 228.917 133.337 228.948C131.281 229.248 129.691 228.552 128.828 228.019L128.995 224.805V224.77C129.097 224.47 129.194 224.14 129.295 223.81L133.271 224.109L134.002 228.816Z" fill="#F0B4B4"/>
<path d="M135.058 238.736C140.302 242.052 148.324 254.688 148.324 254.688L168.12 253.169L169.141 258.853C169.141 258.853 150.239 263.864 145.493 263.098C139.205 262.085 126.578 252.478 124.117 244.962C121.576 237.2 128.678 234.703 135.058 238.732V238.736Z" fill="#F97D97"/>
<path d="M122.933 221.794C122.933 221.794 116.888 226.686 122.933 231.56C128.978 236.43 128.732 239.89 128.225 241.696C128.225 241.696 133.813 234.461 129.753 230.301C127.948 228.451 126.9 228.104 127.327 224.269C127.886 219.236 122.933 221.794 122.933 221.794Z" fill="#333338"/>
<path d="M132.751 212.367C130.497 210.412 126.468 211.504 123.862 213.873C120.45 216.982 122.259 224.722 128.225 225.805C133.474 226.756 138.4 217.277 132.747 212.367H132.751Z" fill="#333338"/>
<path d="M132.545 214.639C134.988 215.212 137.718 224.995 133.932 227.078C130.964 228.711 126.504 225.074 126.504 225.074C126.504 225.074 123.752 224.563 124.034 223.154C124.267 221.974 126.059 222.679 126.059 222.679C125.76 221.737 126.359 220.764 127.327 220.561C131.343 219.725 131.061 216.061 132.54 214.639H132.545Z" fill="#FFCBC7"/>
<path d="M212.449 73.3745C212.449 73.3745 198.456 75.4439 198.698 75.3074C198.936 75.1665 224.306 88.1773 224.306 88.1773L249.302 76.9761L236.907 73.3745H212.449Z" fill="#38383F"/>
<path d="M217.821 92.4661C217.75 92.4661 217.68 92.4661 217.61 92.4661C217.566 92.4661 217.522 92.4661 217.482 92.4661C213.924 92.5057 211.6 92.4177 211.6 92.4177C211.6 92.4177 211.428 92.4573 211.115 92.519C208.073 93.1486 191.663 96.2747 193.063 90.0929C194.287 84.6641 204.132 85.3377 208.082 85.8353C208.095 85.8353 208.108 85.8353 208.121 85.8397C209.107 85.9674 209.715 86.0774 209.715 86.0774C209.715 86.0774 211.674 85.2365 214.765 84.0345C214.893 83.986 215.025 83.9332 215.153 83.8803C225.337 79.9265 246.753 72.4371 252.3 76.9369C252.362 76.9853 252.419 77.0381 252.477 77.091C252.477 77.091 252.485 77.091 252.485 77.0998C252.543 77.157 252.6 77.2143 252.657 77.2715C252.706 77.3199 252.754 77.3728 252.798 77.43C252.816 77.4476 252.833 77.4696 252.851 77.4917C252.913 77.5709 252.97 77.6502 253.027 77.7294C253.084 77.8175 253.141 77.9099 253.19 78.0024C253.238 78.0905 253.282 78.1829 253.318 78.2798C253.406 78.4823 253.476 78.6981 253.525 78.927C253.573 79.1604 253.617 79.3849 253.643 79.6095C253.696 80.0101 253.714 80.3976 253.696 80.7807C253.252 90.7666 229.423 92.2988 217.821 92.4529V92.4661Z" fill="#FFCBC7"/>
<path d="M218.007 93.6284L217.611 92.466L217.439 91.9597V91.9553L214.762 84.0432L214.379 82.9072C224.572 78.949 246.653 72.2432 252.293 76.9368C252.354 76.9896 252.416 77.0425 252.473 77.0997C252.473 77.0997 252.482 77.0997 252.482 77.1085C252.539 77.1658 252.597 77.223 252.654 77.2802C252.702 77.3287 252.751 77.3815 252.795 77.4387C252.812 77.4563 252.83 77.4784 252.848 77.5004C252.909 77.5796 252.966 77.6589 253.024 77.7381C253.081 77.8262 253.138 77.9187 253.187 78.0111C253.235 78.0992 253.279 78.1916 253.314 78.2885C253.402 78.491 253.473 78.7068 253.521 78.9357C253.57 79.1691 253.614 79.3937 253.64 79.6182C253.693 80.0189 253.711 80.4063 253.693 80.7894C253.283 90.8986 229.613 93.4699 218.003 93.624L218.007 93.6284Z" fill="#26262D"/>
<path d="M209.706 86.1124C209.706 86.1124 191.144 82.4844 190.333 90.3305C189.466 98.7621 211.591 92.4483 211.591 92.4483C211.591 92.4483 203.058 94.3151 203.463 89.5291C203.855 84.8972 209.706 86.108 209.706 86.108V86.1124Z" fill="#26262D"/>
<path d="M237.287 54.2577C233.646 59.3739 236.904 73.3753 236.904 73.3753H212.45C213.124 72.4155 215.03 60.347 210.742 53.6941C203.82 42.9597 211.279 34.6161 211.279 34.6161L221.45 32.7668L222.097 29.5307L222.542 27.2984L222.647 26.7788H227.222L227.389 27.7519L227.746 29.8697L228.274 32.9958L237.622 35.0256C237.622 35.0256 245.631 42.5326 237.287 54.2533V54.2577Z" fill="#FFCBC7"/>
<path d="M237.287 54.2619C233.642 59.3781 236.904 73.3751 236.904 73.3751H212.446C213.023 72.5605 214.484 63.6798 212.256 56.9609C211.869 55.7853 211.367 54.6801 210.733 53.6895C203.812 42.9595 211.266 34.6159 211.266 34.6159L221.441 32.7622C221.833 35.0385 227.381 34.902 228.266 32.9956L237.613 35.0297C237.613 35.0297 245.622 42.5324 237.278 54.2575L237.287 54.2619Z" fill="#FF5722"/>
<path d="M212.449 73.3752C213.026 72.5607 214.488 63.6799 212.26 56.961C217.081 55.5609 216.266 68.9459 224.302 73.3752H212.449Z" fill="#C4626E"/>
<path d="M250.588 64.9029C250.333 66.4879 249.219 68.2051 247.568 69.9046C243.341 74.2415 234.738 74.0478 228.833 75.6285L228.217 72.4847C228.217 72.4847 238.757 69.5127 241.021 65.8143C241.263 65.418 241.43 65.0525 241.496 64.7267C242.267 61.0415 238 56.436 238 56.436L237.547 35.0464C237.547 35.0464 251.874 56.8498 250.588 64.9029Z" fill="#FFCBC7"/>
<path d="M250.728 64.8991C250.455 66.3917 249.562 68.263 248.073 69.8965C247.915 70.0682 247.655 70.099 247.461 69.9713L245.652 68.7957L240.901 65.7181C241.143 65.3262 241.266 64.9299 241.332 64.5997C242.103 60.9144 235.27 55.217 235.27 55.217L236.912 34.9062C239.113 34.8093 242.728 39.8287 245.731 45.9884C245.731 45.9884 245.731 45.9972 245.74 46.0104C248.989 52.6721 251.512 60.6547 250.728 64.8947V64.8991Z" fill="#FF5722"/>
<path d="M221.043 72.534L221.149 74.6254C221.338 74.5593 221.321 74.2863 221.127 74.2467C215.865 73.1592 207.218 74.665 203.009 71.0898C200.415 68.8839 198.998 66.1673 198.663 64.0759C197.382 56.0185 211.352 34.6421 211.352 34.6421L210.837 56.0008C210.837 56.0008 206.571 60.6063 207.341 64.2916C207.473 64.9477 207.997 65.7578 208.75 66.6384C211.907 70.3413 221.039 72.5384 221.039 72.5384L221.043 72.534Z" fill="#FFCBC7"/>
<path d="M207.342 64.2865C207.474 64.9425 208.368 65.5149 209.125 66.3955L204.713 70.0631L202.939 71.5381C200.345 69.3322 198.822 66.5055 198.25 64.467C197.369 61.3233 198.624 55.9561 200.737 50.6241C200.746 50.5933 200.75 50.58 200.75 50.58C203.943 42.5358 209.085 34.5929 211.767 34.5269L213.316 56.2026C213.316 56.2026 206.567 60.6012 207.337 64.2865H207.342Z" fill="#FF5722"/>
<path d="M255.639 89.41C257.114 95.6974 240.378 92.6506 237.27 92.0298C236.953 91.9681 236.777 91.9285 236.777 91.9285C236.777 91.9285 234.351 92.043 230.652 92.0254C230.582 92.0254 230.507 92.0254 230.436 92.0254C225.065 91.9989 217.122 91.7039 210.007 90.4359C201.276 88.8816 193.782 85.8656 193.795 80.0801C193.795 80.0669 193.795 80.0581 193.795 80.0493C193.795 79.8115 193.813 79.5738 193.839 79.3316C193.839 79.3272 193.839 79.3228 193.839 79.3184C193.87 79.0674 193.909 78.8121 193.967 78.5523C194.015 78.3189 194.086 78.0988 194.174 77.8875C194.213 77.7906 194.253 77.6981 194.301 77.6057C194.354 77.5088 194.407 77.4163 194.464 77.3239C194.517 77.2402 194.579 77.1566 194.64 77.0773C194.658 77.0553 194.676 77.0333 194.693 77.0157C194.737 76.954 194.786 76.9012 194.834 76.8528C194.891 76.7955 194.944 76.7339 195.006 76.6766C195.006 76.6678 195.015 76.6634 195.015 76.6678C195.688 76.0382 196.635 75.6111 197.797 75.3558C205.78 73.5814 223.898 79.7939 233.083 83.2679C233.215 83.3163 233.351 83.3691 233.479 83.422C236.636 84.6196 238.639 85.4605 238.639 85.4605C238.639 85.4605 239.255 85.3417 240.259 85.2052C240.273 85.2052 240.286 85.2052 240.299 85.2008C244.314 84.6592 254.336 83.8931 255.63 89.41H255.639Z" fill="#FFCBC7"/>
<path d="M233.87 82.2639L233.487 83.4219L230.656 92.0253L230.264 93.2097C225.39 93.1877 218.429 92.7606 211.895 91.5498C202.38 89.7842 193.764 86.3543 193.799 80.0756C193.799 80.0624 193.799 80.0536 193.799 80.0448C193.799 79.8071 193.817 79.5649 193.843 79.3271C193.843 79.3227 193.843 79.3183 193.843 79.3139C193.874 79.063 193.913 78.8076 193.971 78.5478C194.019 78.3145 194.09 78.0943 194.178 77.883C194.217 77.7861 194.257 77.6937 194.305 77.6012C194.358 77.5043 194.411 77.4119 194.468 77.3194C194.521 77.2357 194.583 77.1521 194.644 77.0728C194.662 77.0508 194.68 77.0288 194.697 77.0112C194.741 76.9496 194.79 76.8967 194.838 76.8483C194.895 76.791 194.948 76.7294 195.01 76.6722C195.01 76.6634 195.019 76.659 195.019 76.6634C195.719 75.9897 196.714 75.523 197.938 75.228C206.149 73.2246 224.699 78.7856 233.866 82.2551L233.87 82.2639Z" fill="#38383F"/>
<path d="M238.652 85.4873C238.652 85.4873 257.527 81.6391 258.417 89.6217C259.372 98.1986 236.785 91.9553 236.785 91.9553C236.785 91.9553 245.036 93.5183 244.583 88.6486C244.143 83.9331 238.652 85.4873 238.652 85.4873Z" fill="#38383F"/>
<path d="M239.817 52.5483H209.058C207.979 52.5483 207.104 53.4236 207.104 54.5033V74.5807C207.104 75.6604 207.979 76.5357 209.058 76.5357H239.817C240.897 76.5357 241.772 75.6604 241.772 74.5807V54.5033C241.772 53.4236 240.897 52.5483 239.817 52.5483Z" fill="white"/>
<path d="M221.379 64.5425C221.379 62.8517 222.748 61.478 224.443 61.478C226.139 61.478 227.508 62.8473 227.508 64.5425C227.508 66.2376 226.139 67.6069 224.443 67.6069C222.748 67.6069 221.379 66.2376 221.379 64.5425Z" fill="#D7E0FA"/>
<path d="M241.774 54.5033V74.5763C241.774 75.6551 240.898 76.5313 239.819 76.5313H209.064C207.986 76.5313 207.109 75.6551 207.109 74.5763C238.216 76.0029 241.778 71.4414 239.823 52.5483C240.902 52.5483 241.778 53.4245 241.778 54.5033H241.774Z" fill="#D7E0FA"/>
<g style="mix-blend-mode:multiply">
<path d="M250.729 64.8994C250.456 66.392 249.562 68.2633 248.074 69.8968C247.915 70.0685 247.656 70.0993 247.462 69.9716L245.652 68.796C246.603 67.1449 248.008 65.8373 248.668 63.2791C250.434 56.4369 245.983 46.6051 245.74 46.0151C248.99 52.6768 251.513 60.6594 250.729 64.8994Z" fill="#E6E6E6"/>
</g>
<path d="M218.631 21.2262C218.631 21.2262 214.968 17.2988 217.94 12.0813C217.94 12.0813 218.838 13.706 219.904 13.2569C219.904 13.2569 219.961 9.44389 227.701 8.65576C227.701 8.65576 227.142 10.1704 227.42 10.5622C229.973 9.43949 232.448 12.2266 234.936 11.1787C234.936 11.1787 235.622 15.5992 232.76 18.1794C232.76 18.1794 233.196 19.7072 232.184 21.2218C231.175 22.7364 218.627 21.2218 218.627 21.2218L218.631 21.2262Z" fill="#333338"/>
<path d="M219.784 20.0418C219.784 20.0418 218.111 18.4083 217.952 19.9934C217.767 21.8734 220 23.2692 220 23.2692C220 23.2692 220.546 29.0767 225.442 29.0767C230.338 29.0767 231.113 23.2472 231.113 23.2472C231.113 23.2472 233.671 22.5515 233.125 20.3412C232.87 19.2933 231.535 20.3632 231.535 20.3632V17.607C231.535 17.607 230.175 18.2982 227.542 17.1711C225.64 16.3521 224.957 15.2206 223.333 15.2822C221.479 15.3571 219.7 17.3912 219.775 20.0418H219.784Z" fill="#FFCBC7"/>
<path d="M380.378 229.354C380.378 229.354 384.605 253.147 390.773 254.79C393.565 255.534 397.153 254.909 400.583 253.751C406.378 251.791 411.701 248.304 411.886 247.353L417.764 229.512C414.382 230.97 395.106 241.955 393.534 243.012C390.985 239.186 385.455 229.222 385.274 228.491C385.274 228.491 386.467 223.124 385.415 221.613C384.477 220.275 384.134 224.66 383.738 224.128C383.306 223.542 380.752 217.334 379.057 219.148C375.288 223.19 380.382 229.354 380.382 229.354H380.378Z" fill="#FFCBC7"/>
<path d="M396.788 240.48C397.228 245.134 399.927 251.43 400.209 254.349C406.003 252.39 412.986 251.734 413.171 250.783L417.763 229.512C414.382 230.97 403.511 236.491 396.783 240.484L396.788 240.48Z" fill="#F97D97"/>
<path d="M419.317 330.965C420.532 335.5 421.285 339.568 421.686 343.35C422.711 353.015 422.421 367.893 420.655 377.297L415.702 376.813C415.702 376.813 408.701 351.395 405.395 338.397C404.545 335.099 403.884 332.154 403.541 329.93C401.542 317.245 408.943 281.313 409.419 278.984L409.441 278.896V278.865L429.386 276.078C439.98 301.28 427.414 307.62 419.321 330.969L419.317 330.965Z" fill="#FFCBC7"/>
<path d="M428.718 310.254C425.904 316.044 422.307 322.34 419.317 330.966C420.422 335.069 425.842 348.124 422.518 371.398L413.51 371.614C407.931 352.954 403.881 332.15 403.537 329.931C401.538 317.246 408.94 281.314 409.415 278.985L409.437 278.896V278.866L429.382 276.079C436.071 291.978 433.53 300.365 428.718 310.259V310.254Z" fill="#26262D"/>
<g style="mix-blend-mode:multiply">
<path d="M419.318 330.961C420.418 335.069 425.843 348.119 422.523 371.393L421.162 371.424C422.721 344.812 415.042 331.74 413.594 332C414.888 331.683 426.737 308.475 427.639 300.435L428.718 310.254C425.9 316.044 422.307 322.34 419.318 330.965V330.961Z" fill="#CCCCCC"/>
</g>
<path d="M440.189 383.096L452.336 369.016C452.336 369.016 443.416 355.085 436.199 345.821C434.487 343.606 432.871 341.665 431.488 340.229C421.604 329.992 416.443 278.403 416.443 278.403H432.783C445.591 290.181 442.368 306.392 442.747 322.41C442.879 327.963 444.662 333.317 447.66 337.988C448.264 338.93 448.832 339.881 449.369 340.859C453.107 347.679 455.321 355.679 457.369 368.818L459.901 377.346L440.193 383.092L440.189 383.096Z" fill="#FFCBC7"/>
<path d="M457.663 364.397L450.504 367.32C448.791 365.106 432.865 341.669 431.487 340.233C421.603 329.997 415.223 278.205 415.223 278.205L432.086 278.398L432.782 278.407C445.163 289.789 442.565 305.318 442.719 320.808C442.781 327.13 445.022 333.154 448.681 338.309C454.581 346.627 457.231 363.609 457.663 364.401V364.397Z" fill="#38383F"/>
<g style="mix-blend-mode:multiply">
<path d="M457.663 364.397L457.087 364.634C448.479 341.1 441.623 335.746 440.426 332.717C437.216 324.585 439.189 313.542 438.422 298.022C437.854 286.583 428.186 281.022 428.186 281.022L432.091 278.398L432.787 278.411C445.168 289.793 442.566 305.318 442.724 320.807C442.79 327.13 445.027 333.153 448.686 338.309C454.586 346.626 457.236 363.608 457.668 364.401L457.663 364.397Z" fill="#CCCCCC"/>
</g>
<path d="M441.081 245.103C440.94 255.406 438.404 273.265 437.44 279.688C437.299 280.622 436.788 281.423 436.058 281.925C435.661 282.203 435.19 282.396 434.688 282.471C430.074 283.158 425.557 283.532 421.154 283.519C417.191 283.519 413.325 283.22 409.569 282.568C408.103 282.313 406.976 281.133 406.818 279.653C406.294 274.792 407.817 264.128 407.57 253.751C407.412 247.186 409.468 230.384 421.726 227.742L428.907 227.676C436.96 229.763 440.333 235.923 440.888 240.225C441.059 241.502 441.112 243.17 441.081 245.099V245.103Z" fill="#ED5D75"/>
<path d="M415.116 375.391C407.49 378.319 399.028 378.015 398.504 384.901L422.496 384.065C422.777 381.15 422.293 378.257 421.043 375.395H415.121L415.116 375.391Z" fill="#26262D"/>
<path d="M452.334 369.016C446.232 374.445 437.1 378.271 439.033 384.898L461.189 377.492C460.423 374.665 459.401 370.121 457.217 367.88L452.334 369.016Z" fill="#26262D"/>
<path d="M423.967 221.416C426.305 222.138 427.247 223.305 430.237 221.957C434.785 219.901 438.625 212.029 432.584 208.467C432.166 207.221 431.747 206.736 430.153 206.388C428.564 206.045 426.93 206.736 424.733 206.697C422.541 206.657 419.437 204.398 417.521 207.59C415.61 210.783 420.352 213.261 422.73 214.833C425.108 216.405 424.337 219.117 423.963 221.416H423.967Z" fill="#333338"/>
<path d="M429.009 227.703C426.398 230.314 423.932 230.816 421.727 227.747L422.347 222.706L422.607 220.583H428.388L428.498 221.9L429.009 227.699V227.703Z" fill="#FFCBC7"/>
<path d="M428.581 222.842C427.155 224.56 423.214 225.057 422.148 224.322L422.606 220.588L428.423 218.149L428.586 222.842H428.581Z" fill="#F0B4B4"/>
<path d="M419.643 210.483C418.577 213.482 417.538 220.112 420.083 222.578C421.695 224.137 427.542 223.534 428.735 219.245C430.144 218.224 431.179 215.736 429.88 214.604C428.955 213.799 427.771 215.925 426.155 215.573C425.543 215.441 427.423 211.342 425.512 210.633C423.597 209.924 421.576 211.461 419.647 210.483H419.643Z" fill="#FFCBC7"/>
<g style="mix-blend-mode:screen">
<path d="M365.215 186.001C382.054 182.762 393.079 166.484 389.839 149.645C386.6 132.805 370.322 121.78 353.483 125.02C336.643 128.26 325.618 144.537 328.858 161.377C332.098 178.216 348.375 189.241 365.215 186.001Z" fill="#58595B"/>
</g>
<path d="M348.426 121.362C329.467 127.21 318.776 147.327 324.597 166.202C330.418 185.078 350.579 195.68 369.543 189.833C388.502 183.986 399.192 163.869 393.371 144.993C387.551 126.118 367.39 115.515 348.426 121.362ZM367.918 184.563C351.847 189.52 334.821 180.569 329.89 164.569C324.954 148.568 333.98 131.582 350.051 126.628C366.121 121.671 383.148 130.622 388.079 146.622C393.015 162.623 383.984 179.609 367.918 184.563Z" fill="#38383F"/>
<path d="M373.926 185.178L363.66 188.344L368.49 204.004L378.756 200.838L373.926 185.178Z" fill="#38383F"/>
<path d="M381.729 199.85C381.756 199.938 381.787 200.035 381.809 200.127L383.785 207.361L400.081 266.933L402.745 276.686C403.612 279.852 401.802 283.132 398.654 284.101C395.506 285.074 392.164 283.378 391.09 280.279L387.801 270.72L367.715 212.315L365.271 205.222C363.682 200.62 366.24 195.614 370.92 194.17C375.499 192.757 380.334 195.315 381.729 199.846V199.85Z" fill="#38383F"/>
<path d="M395.092 268.47L400.076 266.933L402.74 276.681C403.608 279.847 401.798 283.127 398.65 284.1C397.76 284.373 396.849 284.435 395.986 284.312C397.624 282.819 398.377 280.49 397.756 278.222L395.088 268.474L395.092 268.47Z" fill="#26262D"/>
<path d="M381.726 199.845C381.752 199.938 381.783 200.03 381.805 200.123L383.782 207.357L378.798 208.893L376.821 201.659C376.799 201.567 376.773 201.47 376.742 201.382C375.61 197.714 372.224 195.336 368.539 195.319C369.248 194.83 370.045 194.438 370.917 194.17C375.496 192.756 380.33 195.319 381.726 199.845Z" fill="#26262D"/>
<path d="M383.781 207.357L400.076 266.933L395.092 268.47L378.797 208.894L383.781 207.357Z" fill="#ED5D75"/>
<path d="M378.797 208.893L395.092 268.47L387.801 270.719L367.715 212.314L378.797 208.893Z" fill="#F97D97"/>
<path d="M436.361 248.516C436.361 248.516 429.941 256.247 424.112 260.501C422.716 261.509 421.369 262.319 420.14 262.786C411.647 266.009 392.212 264.926 392.212 264.926C386.04 268.074 384.86 265.555 383.473 263.134C380.047 257.159 386.96 261.535 387.937 259.048C387.937 259.048 383.992 257.846 385.295 255.996C386.59 254.138 393.85 258.418 393.85 258.418C403.031 256.71 407.953 254.094 415.218 252.65C415.843 251.77 416.468 250.893 417.116 250.026C421.792 243.813 427.216 238.156 434.595 234.4C438.171 239.076 438.065 243.791 436.365 248.516H436.361Z" fill="#FFCBC7"/>
<path d="M425.931 260.708L415.795 249.379C420.475 243.166 429.431 229.548 435.679 234.981C443.996 242.215 431.76 256.454 425.931 260.708Z" fill="#F97D97"/>
<path d="M42.6753 326.118C46.3474 328.412 48.1702 332.701 48.8307 336.826C49.2489 339.441 49.2621 342.11 49.2533 344.751C49.2445 347.437 49.2533 350.123 49.4251 352.804C49.6188 355.864 49.971 358.911 50.473 361.936C50.517 362.196 50.8384 362.341 51.0762 362.28C51.3536 362.205 51.4636 361.941 51.4196 361.676C50.9705 358.96 50.6447 356.226 50.4509 353.478C50.2572 350.761 50.2176 348.045 50.2308 345.324C50.2528 340.353 50.2044 335.201 47.9192 330.662C46.8273 328.496 45.2378 326.567 43.1685 325.273C42.6313 324.938 42.1426 325.783 42.6753 326.118Z" fill="#036969"/>
<path d="M44.0399 318.836C44.0883 319.324 44.1631 319.927 43.7317 320.148C43.4146 320.306 42.9611 320.134 42.7102 319.839C42.4592 319.544 42.3667 319.166 42.3447 318.809C42.3051 318.202 42.424 317.616 42.4152 317.008C42.4064 316.405 42.2391 315.74 41.7503 315.291C40.5747 314.204 38.5846 315.102 37.2461 314.204C37.4795 314.688 37.8845 315.097 38.2852 315.48C38.6859 315.868 39.1041 316.255 39.3859 316.722C39.6633 317.189 39.7778 317.766 39.5444 318.193C39.3067 318.62 38.6418 318.805 38.1839 318.483C37.6336 318.096 37.6996 317.352 37.4971 316.749C37.2065 315.89 36.2863 315.265 35.366 315.04C34.4458 314.816 33.5168 314.913 32.6142 315.014C33.7501 315.947 34.5471 317.246 34.8069 318.589C34.0804 318.598 33.596 317.805 33.0677 317.268C32.2752 316.462 31.0864 316.115 29.9988 316.115C29.1491 316.115 28.3433 316.304 27.5508 316.533C27.6829 317.343 27.859 318.153 28.22 318.924C28.6823 319.905 29.5101 320.83 30.5756 321.2C31.2845 321.446 32.2091 321.548 32.5129 322.208C31.192 322.543 29.6774 322.38 28.3433 321.755C28.6427 322.613 28.9509 323.494 29.5497 324.229C30.1441 324.964 31.1084 325.532 32.0066 325.422C32.6362 325.347 33.279 324.969 33.869 325.299C34.3578 325.572 34.4722 326.25 34.1904 326.651C33.9043 327.047 33.3363 327.188 32.7947 327.14C32.2531 327.091 31.7248 326.875 31.2008 326.677C30.6813 326.479 30.1397 326.29 29.6026 326.285C30.9851 327.109 31.0247 329.293 32.5129 329.891C33.1293 330.138 33.7986 330.006 34.3489 329.755C34.8993 329.504 35.3792 329.143 35.9472 328.923C36.2818 328.786 36.6605 328.707 37.0348 328.808C37.409 328.909 37.7612 329.249 37.7524 329.601C37.7392 330.085 37.1624 330.274 36.7001 330.437C35.1063 331.005 33.9791 332.423 33.8118 334.065C34.8905 333.414 36.3655 333.568 37.7216 333.775C39.0777 333.982 40.5351 334.197 41.6799 333.643C43.8285 332.595 45.1362 329.231 43.987 327.232C43.9606 327.184 43.9342 327.14 43.9034 327.095C44.1059 327.122 44.3128 327.126 44.5198 327.104C46.7213 326.902 49.0416 324.207 49.068 321.966C49.0812 320.694 48.2579 319.47 47.4918 318.334C46.7257 317.193 45.9507 315.93 46.0784 314.675C44.6651 315.529 43.8681 317.154 44.0399 318.836ZM39.7029 332.097C39.7029 332.524 39.223 332.881 38.6198 332.89C38.0166 332.899 37.5279 332.555 37.5235 332.128C37.5191 331.701 38.0034 331.344 38.6066 331.336C39.2054 331.327 39.6985 331.666 39.7029 332.097ZM32.1034 323.661C32.1034 323.912 31.8261 324.119 31.4694 324.128C31.1172 324.132 30.831 323.934 30.8266 323.683C30.8266 323.432 31.1084 323.225 31.4606 323.221C31.8128 323.216 32.099 323.415 32.1034 323.666V323.661ZM41.0811 320.011C41.1735 320.302 41.0811 320.597 40.8741 320.663C40.6672 320.729 40.4206 320.548 40.3282 320.253C40.2357 319.963 40.3282 319.672 40.5351 319.602C40.742 319.536 40.9886 319.716 41.0811 320.007V320.011Z" fill="#048C8C"/>
<path d="M49.8286 313.821C47.2 318.959 48.8467 324.841 50.2116 330.085C50.9601 332.969 51.6646 335.915 51.5237 338.913C51.4533 340.419 51.123 341.898 50.9249 343.391C50.7312 344.87 50.6167 346.359 50.5947 347.847C50.5375 351.242 50.9205 354.649 51.7263 357.952C51.876 358.564 52.8182 358.304 52.6685 357.692C51.964 354.803 51.5942 351.845 51.5677 348.873C51.5545 347.38 51.625 345.892 51.7835 344.408C51.942 342.924 52.2458 341.467 52.4131 339.983C53.0868 334.118 50.3657 328.646 49.6084 322.935C49.2254 320.038 49.3178 316.964 50.6739 314.314C50.9601 313.755 50.1148 313.257 49.8286 313.821Z" fill="#036969"/>
<path d="M57.3232 314.662C56.9005 314.909 56.3765 315.221 56.0023 314.917C55.7293 314.693 55.6985 314.208 55.8614 313.856C56.0287 313.504 56.3325 313.266 56.6539 313.099C57.1911 312.813 57.7767 312.681 58.3227 312.425C58.8686 312.17 59.4058 311.743 59.6171 311.113C60.1279 309.594 58.49 308.146 58.7586 306.561C58.4151 306.97 58.2082 307.507 58.0189 308.031C57.8339 308.555 57.6534 309.097 57.3408 309.541C57.0282 309.986 56.5527 310.329 56.0639 310.29C55.5752 310.25 55.1349 309.722 55.2406 309.171C55.3683 308.511 56.0727 308.264 56.5395 307.833C57.2043 307.217 57.3936 306.116 57.2219 305.187C57.0502 304.258 56.5791 303.452 56.1168 302.664C55.7337 304.082 54.8751 305.345 53.7612 306.133C53.453 305.477 53.9769 304.707 54.2499 304.007C54.6594 302.954 54.4877 301.726 54.0386 300.735C53.6863 299.965 53.1844 299.304 52.6516 298.679C51.9648 299.133 51.2999 299.626 50.7496 300.273C50.0451 301.101 49.5388 302.232 49.64 303.355C49.7061 304.104 49.9967 304.984 49.5167 305.535C48.667 304.465 48.1959 303.016 48.2179 301.55C47.5574 302.175 46.8794 302.818 46.4567 303.663C46.0296 304.509 45.9107 305.618 46.3774 306.398C46.7077 306.939 47.3153 307.371 47.2536 308.044C47.2052 308.603 46.6328 308.987 46.1529 308.89C45.673 308.793 45.3119 308.33 45.1314 307.815C44.9553 307.3 44.9289 306.728 44.898 306.173C44.8628 305.618 44.8144 305.046 44.5986 304.553C44.4137 306.151 42.4412 307.089 42.5072 308.687C42.5337 309.352 42.9299 309.907 43.3878 310.303C43.8413 310.704 44.3697 310.994 44.8056 311.417C45.0653 311.664 45.2987 311.981 45.3603 312.364C45.422 312.747 45.2547 313.205 44.9289 313.341C44.4842 313.526 44.0703 313.081 43.7313 312.729C42.5601 311.509 40.8033 311.065 39.2402 311.589C40.2793 312.302 40.7416 313.711 41.1115 315.036C41.4813 316.357 41.882 317.779 42.8595 318.589C44.6955 320.117 48.3059 319.928 49.6488 318.057C49.6796 318.013 49.7105 317.969 49.7413 317.925C49.7985 318.123 49.8822 318.312 49.9835 318.493C51.071 320.417 54.4833 321.425 56.5395 320.527C57.7062 320.016 58.4812 318.766 59.2033 317.599C59.9253 316.432 60.7619 315.204 61.9551 314.807C60.599 313.869 58.785 313.812 57.3232 314.658V314.662ZM43.4539 316.159C43.0664 316.339 42.5425 316.044 42.2871 315.499C42.0317 314.953 42.1418 314.367 42.5292 314.186C42.9167 314.006 43.4407 314.301 43.696 314.847C43.9514 315.388 43.8413 315.978 43.4539 316.159ZM48.0197 305.764C47.7908 305.869 47.487 305.698 47.3373 305.376C47.1876 305.059 47.2536 304.716 47.4782 304.61C47.7071 304.504 48.0109 304.676 48.1606 304.997C48.3103 305.314 48.2487 305.658 48.0197 305.764ZM55.0381 312.447C54.8091 312.654 54.5053 312.689 54.36 312.527C54.2147 312.364 54.2807 312.069 54.5097 311.862C54.7342 311.655 55.0381 311.62 55.1878 311.782C55.333 311.945 55.2714 312.24 55.0425 312.447H55.0381Z" fill="#048C8C"/>
<path d="M61.8106 324.674C59.2349 324.054 56.9762 326.053 55.5144 327.937C54.0614 329.817 53.062 332.019 52.494 334.321C51.9216 336.642 51.7587 339.068 51.9568 341.45C52.0669 342.801 52.3267 344.127 52.5688 345.456C52.8286 346.865 52.9783 348.27 52.9299 349.705C52.8198 352.994 51.8864 356.186 50.975 359.326C50.7988 359.933 51.7411 360.189 51.9172 359.586C52.7185 356.834 53.5111 354.06 53.8061 351.193C53.9514 349.798 53.9646 348.389 53.7973 346.997C53.6255 345.575 53.2909 344.18 53.084 342.762C52.4411 338.31 53.0752 333.485 55.51 329.641C56.1969 328.553 57.029 327.519 58.0329 326.704C59.0059 325.92 60.2828 325.313 61.5509 325.617C62.1629 325.766 62.4226 324.82 61.8106 324.674Z" fill="#036969"/>
<path d="M58.773 332.533C58.8919 332.058 59.0328 331.468 59.5127 331.406C59.865 331.367 60.2348 331.684 60.3713 332.045C60.5078 332.41 60.4638 332.793 60.3625 333.137C60.1908 333.718 59.8782 334.233 59.68 334.805C59.4819 335.378 59.4115 336.056 59.7153 336.646C60.4506 338.072 62.6256 337.905 63.5767 339.204C63.5238 338.671 63.2817 338.147 63.0351 337.65C62.7885 337.148 62.5288 336.641 62.4275 336.109C62.3262 335.576 62.4143 334.995 62.7841 334.673C63.154 334.352 63.8408 334.405 64.1579 334.867C64.5453 335.422 64.2283 336.095 64.2107 336.729C64.1887 337.636 64.8447 338.539 65.6328 339.063C66.421 339.587 67.328 339.811 68.2086 340.032C67.4601 338.768 67.1563 337.271 67.3676 335.924C68.0545 336.161 68.2394 337.073 68.552 337.755C69.0187 338.781 70.0182 339.516 71.0397 339.886C71.8366 340.173 72.6644 340.274 73.4833 340.327C73.6374 339.521 73.7475 338.698 73.6726 337.852C73.5714 336.769 73.1135 335.62 72.2373 334.907C71.6517 334.431 70.8195 334.022 70.7623 333.3C72.1184 333.436 73.4877 334.105 74.5268 335.149C74.54 334.237 74.5488 333.304 74.2406 332.41C73.9324 331.516 73.2235 330.653 72.3386 330.446C71.7221 330.301 70.9868 330.438 70.5465 329.927C70.1811 329.504 70.3044 328.826 70.7051 328.549C71.1101 328.271 71.6913 328.337 72.1844 328.566C72.6776 328.8 73.1003 329.178 73.5229 329.544C73.9456 329.909 74.3903 330.27 74.8923 330.46C73.8752 329.214 74.5797 327.144 73.3865 326.079C72.8933 325.634 72.2153 325.533 71.6121 325.581C71.0089 325.63 70.4321 325.801 69.8289 325.819C69.4678 325.832 69.0848 325.779 68.7678 325.555C68.4507 325.33 68.2394 324.894 68.3671 324.564C68.5432 324.115 69.1508 324.133 69.6395 324.133C71.3303 324.141 72.8757 323.195 73.5934 321.711C72.3562 321.957 71.0265 321.306 69.8201 320.645C68.6136 319.989 67.3192 319.285 66.0555 319.417C63.6779 319.668 61.3003 322.385 61.701 324.652C61.7098 324.705 61.7186 324.758 61.7318 324.811C61.5513 324.714 61.3576 324.643 61.155 324.59C59.0152 324.027 55.9155 325.77 55.1274 327.871C54.6783 329.059 55.0349 330.49 55.3651 331.825C55.6998 333.159 55.9948 334.612 55.4444 335.748C57.0647 335.431 58.368 334.171 58.7818 332.533H58.773ZM67.3764 321.548C67.5173 321.143 68.0941 320.976 68.6621 321.174C69.2301 321.372 69.5735 321.861 69.4326 322.266C69.2917 322.671 68.7149 322.838 68.1469 322.64C67.579 322.442 67.2355 321.953 67.3764 321.548ZM71.6385 332.071C71.7221 331.833 72.0568 331.736 72.3914 331.851C72.7216 331.965 72.9241 332.252 72.8405 332.489C72.7568 332.727 72.4222 332.824 72.0876 332.71C71.753 332.595 71.5504 332.309 71.6341 332.075L71.6385 332.071ZM61.952 332.437C61.9652 332.128 62.1501 331.886 62.3703 331.895C62.5904 331.904 62.7533 332.159 62.7445 332.463C62.7357 332.767 62.5464 333.009 62.3306 333.005C62.1105 332.996 61.9432 332.745 61.9564 332.437H61.952Z" fill="#048C8C"/>
<path d="M59.7752 352.576V383.608C59.7752 383.608 59.7444 383.612 59.7312 383.612C53.8401 384.524 48.2263 384.647 43.0176 383.608V352.576H59.7752Z" fill="#FF5722"/>
<g style="mix-blend-mode:multiply">
<path d="M59.7752 352.576V383.608C59.7752 383.608 59.7488 383.621 59.7312 383.612C56.3101 366.863 55.5968 358.233 43.0176 358.286V352.576H59.7752Z" fill="#CCCCCC"/>
</g>
<path d="M60.6339 352.576H42.2207V355.759H60.6339V352.576Z" fill="#FF5722"/>
<path d="M300.593 25.0786C300.655 25.0786 300.655 25.1755 300.593 25.1755C300.531 25.1755 300.531 25.0786 300.593 25.0786Z" fill="#30334D"/>
<path d="M279.313 4.5613C283.936 1.04334 289.959 -0.392029 295.749 0.0922963C299.487 0.404906 303.221 1.51885 306.268 3.70713C309.315 5.8954 311.626 9.23284 312.15 12.9489C312.679 16.665 311.256 20.7025 308.24 22.9348C305.053 25.2992 300.725 25.3917 296.801 24.8149C291.835 24.0796 287.036 22.4329 282.06 21.7505C280.004 21.4687 277.829 21.3718 275.927 22.2084C274.025 23.0449 272.515 24.0312 271.898 26.8006C268.825 14.9479 274.694 8.07486 279.313 4.5613Z" fill="#FF5722"/>
<path d="M306.934 12.7944C306.934 11.8082 306.137 11.0112 305.15 11.0112C304.164 11.0112 303.367 11.8082 303.367 12.7944C303.367 13.7807 304.164 14.5776 305.15 14.5776C306.137 14.5776 306.934 13.7807 306.934 12.7944Z" fill="white"/>
<path d="M299.725 12.7944C299.725 11.8082 298.928 11.0112 297.941 11.0112C296.955 11.0112 296.158 11.8082 296.158 12.7944C296.158 13.7807 296.955 14.5776 297.941 14.5776C298.928 14.5776 299.725 13.7807 299.725 12.7944Z" fill="white"/>
<path d="M292.521 12.7944C292.521 11.8082 291.725 11.0112 290.738 11.0112C289.752 11.0112 288.955 11.8082 288.955 12.7944C288.955 13.7807 289.752 14.5776 290.738 14.5776C291.725 14.5776 292.521 13.7807 292.521 12.7944Z" fill="white"/>
<path d="M285.314 12.7944C285.314 11.8082 284.518 11.0112 283.531 11.0112C282.545 11.0112 281.748 11.8082 281.748 12.7944C281.748 13.7807 282.545 14.5776 283.531 14.5776C284.518 14.5776 285.314 13.7807 285.314 12.7944Z" fill="white"/>
<path d="M287.645 25.1582C288.125 25.2639 288.565 25.4973 289.023 25.669C289.485 25.8407 289.952 25.9948 290.419 26.1533C291.356 26.4659 292.294 26.7785 293.25 27.0251C295.156 27.5182 297.115 27.8132 299.088 27.844C302.553 27.9013 306.036 27.122 309.021 25.3211C310.637 24.3437 312.121 23.0492 313.274 21.5478C313.327 21.4774 313.45 21.539 313.402 21.6227C312.477 23.0624 311.333 24.2556 309.954 25.2727C308.563 26.2986 307.005 27.0867 305.371 27.6503C301.677 28.9272 297.723 28.9052 293.932 28.051C292.809 27.8 291.691 27.4874 290.612 27.0911C290.08 26.893 289.556 26.6685 289.04 26.4307C288.508 26.1885 287.922 25.9772 287.455 25.625C287.235 25.462 287.354 25.1054 287.649 25.167L287.645 25.1582Z" fill="#FF5722"/>
<path d="M269.57 12.9535C270.028 11.0338 270.899 9.23738 272.106 7.67433C272.709 6.8906 273.4 6.17292 274.162 5.53889C274.519 5.24389 274.884 4.9577 275.267 4.70233C275.65 4.44255 276.108 4.14315 276.557 4.01106C276.663 3.98024 276.751 4.12554 276.667 4.20039C276.337 4.49979 275.923 4.74196 275.567 5.01054C275.17 5.30553 274.787 5.61374 274.426 5.94837C273.739 6.57799 273.119 7.28246 272.568 8.03537C271.459 9.56319 270.666 11.3024 270.261 13.1472C270.164 13.5963 269.464 13.407 269.574 12.9579L269.57 12.9535Z" fill="#FF5722"/>
<path d="M283.175 23.9428C283.378 23.8372 283.664 23.8724 283.888 23.8944C284.113 23.9164 284.337 23.9516 284.558 24.0045C284.769 24.0573 284.976 24.1322 285.174 24.2246C285.385 24.3215 285.623 24.4272 285.755 24.6253C285.865 24.7882 285.72 25.0744 285.513 25.048C285.434 25.0392 285.368 25.0304 285.293 24.9951C285.249 24.9731 285.205 24.9467 285.156 24.9247C285.077 24.8851 285.029 24.8631 284.954 24.8366C284.773 24.7662 284.584 24.7001 284.395 24.6561C284.302 24.6341 284.21 24.6121 284.117 24.5989C284.016 24.5813 283.994 24.5769 283.888 24.5681C283.796 24.5592 283.699 24.5548 283.607 24.5548C283.492 24.5548 283.364 24.5769 283.254 24.5328C283.131 24.4844 283.039 24.4007 283.025 24.2643C283.012 24.141 283.065 24.0045 283.18 23.9428H283.175Z" fill="#FF5722"/>
<path d="M480.735 150.96C473.501 138.35 447.171 139.662 444.692 156.288C443.49 162.311 448.65 167.419 453.366 170.21C460.657 174.529 454.022 178.774 447.136 177.792C462.339 185.581 490.452 167.898 480.735 150.956V150.96Z" fill="#FF5722"/>
<path d="M462.987 164.354C462.987 163.332 463.137 162.218 463.441 161.012C463.74 159.805 464.176 158.339 464.749 156.613L464.986 155.887C465.431 154.429 465.651 153.205 465.651 152.219C465.651 150.661 465.176 149.881 464.225 149.881C463.621 149.881 463.322 150.26 463.322 151.013C463.322 151.198 463.432 151.651 463.657 152.369C463.657 152.386 463.577 152.435 463.419 152.519C462.877 152.77 462.481 152.897 462.23 152.897C461.341 152.897 460.9 152.338 460.9 151.215V150.964C460.9 150.528 460.988 150.159 461.16 149.846C461.332 149.538 461.658 149.265 462.133 149.031C462.67 148.798 463.335 148.679 464.128 148.679C464.823 148.679 465.427 148.745 465.933 148.882C466.439 149.014 466.853 149.199 467.17 149.437C467.677 149.837 467.994 150.432 468.121 151.22C468.152 151.405 468.17 151.73 468.17 152.202C468.17 153.677 467.694 155.284 466.743 157.027C466.329 157.749 465.981 158.656 465.695 159.753C465.409 160.849 465.268 161.985 465.268 163.156C465.268 164.076 465.286 164.64 465.317 164.838C464.744 164.838 464.427 164.856 464.366 164.886C464.299 164.904 464.225 164.913 464.128 164.913C463.494 164.913 463.115 164.728 462.987 164.358V164.354ZM462.987 167.445C462.64 167.277 462.463 167.066 462.463 166.815C462.463 166.582 462.653 166.357 463.036 166.15C463.414 165.939 463.846 165.838 464.321 165.838C464.7 165.838 465.083 165.948 465.462 166.163C465.841 166.379 466.034 166.59 466.034 166.793C466.034 167.431 465.4 167.748 464.132 167.748C463.657 167.748 463.278 167.647 462.992 167.449L462.987 167.445Z" fill="white"/>
<path d="M487.062 157.04C487.031 156.195 486.934 155.349 486.772 154.522C486.446 152.866 485.865 151.255 485.063 149.766C483.54 146.94 481.167 144.624 478.331 143.122C476.764 142.29 475.082 141.735 473.316 141.55C473.122 141.528 473.092 141.832 473.272 141.885C476.169 142.678 478.903 144.003 481.096 146.09C483.359 148.243 484.922 151.021 485.596 154.072C485.79 154.953 485.913 155.847 485.961 156.745C486.01 157.643 485.865 158.546 485.922 159.435C485.957 159.99 486.745 160.131 486.912 159.567C487.146 158.779 487.097 157.855 487.067 157.044L487.062 157.04Z" fill="#FF5722"/>
<path d="M486.425 162.76C486.416 162.69 486.407 162.619 486.398 162.549C486.385 162.474 486.341 162.43 486.319 162.364C486.293 162.289 486.174 162.232 486.112 162.311C486.077 162.36 486.024 162.382 485.984 162.434C485.949 162.483 485.923 162.54 485.892 162.593C485.83 162.703 485.769 162.813 485.711 162.923C485.579 163.174 485.487 163.443 485.377 163.702C485.399 163.65 485.333 163.799 485.324 163.817C485.298 163.879 485.267 163.936 485.24 163.993C485.183 164.112 485.121 164.226 485.055 164.341C484.989 164.455 484.923 164.57 484.853 164.68C484.818 164.737 484.778 164.79 484.743 164.843C484.672 164.957 484.655 165.054 484.641 165.182C484.597 165.561 485.086 165.781 485.377 165.605C485.641 165.446 485.782 165.085 485.91 164.812C486.037 164.543 486.152 164.27 486.249 163.993C486.341 163.729 486.42 163.451 486.438 163.17C486.447 163.038 486.438 162.897 486.425 162.765V162.76Z" fill="#FF5722"/>
<path d="M451.328 172.45C450.967 172.239 450.523 172.147 450.14 171.971C449.752 171.794 449.369 171.596 449.004 171.381C448.282 170.949 447.608 170.443 447 169.862C446.388 169.28 445.825 168.646 445.349 167.946C444.874 167.251 444.416 166.507 444.081 165.736C444.019 165.591 443.782 165.696 443.826 165.842C444.081 166.713 444.385 167.515 444.865 168.294C445.336 169.056 445.891 169.782 446.529 170.416C447.154 171.042 447.854 171.601 448.603 172.076C448.995 172.323 449.4 172.547 449.818 172.745C450.228 172.939 450.672 173.168 451.121 173.225C451.548 173.278 451.659 172.644 451.333 172.455L451.328 172.45Z" fill="#FF5722"/>
<path d="M66.1782 195.803C72.6946 184.439 96.4265 185.619 98.6632 200.607C99.7464 206.036 95.0968 210.637 90.848 213.156C84.2788 217.048 90.258 220.874 96.4618 219.989C82.7553 227.007 57.4207 211.069 66.1782 195.803Z" fill="#FF5722"/>
<path d="M60.4761 201.285C60.5026 200.524 60.5906 199.762 60.7403 199.013C61.0309 197.521 61.5549 196.068 62.277 194.729C63.6507 192.184 65.7905 190.093 68.3442 188.741C69.7576 187.993 71.2722 187.491 72.8617 187.324C73.0378 187.306 73.0642 187.579 72.9013 187.623C70.2903 188.336 67.8247 189.534 65.8522 191.414C63.8136 193.356 62.4046 195.861 61.7926 198.608C61.6165 199.401 61.5064 200.207 61.4624 201.017C61.4184 201.827 61.5505 202.641 61.502 203.443C61.4712 203.945 60.7623 204.072 60.6126 203.562C60.4057 202.853 60.4497 202.016 60.4761 201.285Z" fill="#FF5722"/>
<path d="M61.0481 206.437C61.0569 206.375 61.0613 206.309 61.0745 206.248C61.0877 206.177 61.1274 206.142 61.1494 206.08C61.1758 206.01 61.2771 205.962 61.3343 206.032C61.3695 206.076 61.4136 206.098 61.4488 206.142C61.4796 206.186 61.506 206.239 61.5324 206.287C61.5897 206.384 61.6425 206.486 61.6953 206.587C61.8142 206.811 61.8979 207.053 61.9947 207.287C61.9727 207.238 62.0344 207.375 62.0432 207.388C62.0696 207.441 62.0916 207.494 62.118 207.547C62.1709 207.652 62.2237 207.758 62.2809 207.859C62.3382 207.96 62.3998 208.066 62.4615 208.163C62.4923 208.211 62.5275 208.26 62.5583 208.313C62.62 208.414 62.6376 208.502 62.6508 208.621C62.6904 208.96 62.2501 209.158 61.9859 209C61.7482 208.854 61.6205 208.528 61.506 208.286C61.3915 208.044 61.2903 207.798 61.2022 207.547C61.1186 207.309 61.0481 207.058 61.0349 206.803C61.0261 206.684 61.0349 206.556 61.0437 206.437H61.0481Z" fill="#FF5722"/>
<path d="M92.6829 215.176C93.0087 214.987 93.4094 214.903 93.7528 214.745C94.105 214.586 94.4441 214.41 94.7787 214.212C95.4303 213.824 96.0335 213.367 96.5839 212.843C97.1387 212.319 97.6406 211.746 98.0721 211.117C98.4992 210.491 98.9131 209.818 99.2169 209.122C99.2741 208.99 99.4854 209.082 99.4458 209.219C99.2169 210.007 98.9395 210.729 98.508 211.429C98.0853 212.116 97.5834 212.768 97.011 213.34C96.4474 213.904 95.8134 214.406 95.1397 214.837C94.7875 215.062 94.422 215.264 94.0478 215.44C93.6779 215.616 93.2773 215.823 92.8722 215.876C92.4891 215.925 92.3879 215.352 92.6829 215.181V215.176Z" fill="#FF5722"/>
<path d="M69.418 201.361C69.418 200.586 70.0476 199.96 70.8181 199.96C71.5886 199.96 72.2183 200.59 72.2183 201.361C72.2183 202.131 71.5886 202.765 70.8181 202.765C70.0476 202.765 69.418 202.136 69.418 201.361Z" fill="white"/>
<path d="M75.7324 201.361C75.7324 200.586 76.362 199.96 77.137 199.96C77.9119 199.96 78.5371 200.59 78.5371 201.361C78.5371 202.131 77.9075 202.765 77.137 202.765C76.3664 202.765 75.7324 202.136 75.7324 201.361Z" fill="white"/>
<path d="M82.041 201.361C82.041 200.586 82.6706 199.96 83.4456 199.96C84.2205 199.96 84.8457 200.59 84.8457 201.361C84.8457 202.131 84.2161 202.765 83.4456 202.765C82.675 202.765 82.041 202.136 82.041 201.361Z" fill="white"/>
<path d="M88.668 201.361C88.668 200.586 89.2976 199.96 90.0725 199.96C90.8474 199.96 91.4727 200.59 91.4727 201.361C91.4727 202.131 90.843 202.765 90.0725 202.765C89.302 202.765 88.668 202.136 88.668 201.361Z" fill="white"/>
</g>
<defs>
<clipPath id="clip0_461_5474">
<rect width="500" height="386.919" fill="white"/>
</clipPath>
</defs>
</svg>
