<svg width="20" height="20" viewBox="0 0 20 20" fill="none" xmlns="http://www.w3.org/2000/svg">
<g clip-path="url(#clip0_655_138)">
<mask id="mask0_655_138" style="mask-type:luminance" maskUnits="userSpaceOnUse" x="0" y="0" width="20" height="20">
<path d="M20 0H0V20H20V0Z" fill="white"/>
</mask>
<g mask="url(#mask0_655_138)">
<path d="M10 11.1913C11.4359 11.1913 12.6 10.0272 12.6 8.59125C12.6 7.15528 11.4359 5.99121 10 5.99121C8.56408 5.99121 7.4 7.15528 7.4 8.59125C7.4 10.0272 8.56408 11.1913 10 11.1913Z" stroke="#212121" stroke-width="1.5"/>
<path d="M3.01663 7.07484C4.65829 -0.141827 15.35 -0.133493 16.9833 7.08317C17.9417 11.3165 15.3083 14.8998 13 17.1165C11.325 18.7332 8.675 18.7332 6.99163 17.1165C4.69163 14.8998 2.05829 11.3082 3.01663 7.07484Z" stroke="#212121" stroke-width="1.5"/>
</g>
</g>
<defs>
<clipPath id="clip0_655_138">
<rect width="20" height="20" fill="white"/>
</clipPath>
</defs>
</svg>
