<svg width="18" height="18" viewBox="0 0 18 18" fill="none" xmlns="http://www.w3.org/2000/svg">
<path fill-rule="evenodd" clip-rule="evenodd" d="M3.75 3.5625C3.50136 3.5625 3.2629 3.66127 3.08709 3.83709C2.91488 4.0093 2.81658 4.24161 2.81262 4.48472C2.98625 7.26614 4.16947 9.88873 6.14037 11.8596C8.11127 13.8305 10.7339 15.0137 13.5153 15.1874C13.7584 15.1834 13.9907 15.0851 14.1629 14.9129C14.3387 14.7371 14.4375 14.4986 14.4375 14.25V11.6308L11.4859 10.4502L10.6073 11.9144C10.4567 12.1654 10.1387 12.259 9.8762 12.1295C8.13651 11.2715 6.7285 9.86349 5.87052 8.1238C5.74103 7.86125 5.83457 7.54328 6.0856 7.39266L7.54982 6.51413L6.36917 3.5625H3.75ZM2.29159 3.04159C2.67839 2.6548 3.20299 2.4375 3.75 2.4375H6.75C6.98001 2.4375 7.18684 2.57753 7.27227 2.79109L8.77227 6.54109C8.8748 6.79743 8.77615 7.09029 8.5394 7.23234L7.12357 8.08184C7.79557 9.24091 8.75909 10.2044 9.91816 10.8764L10.7677 9.4606C10.9097 9.22385 11.2026 9.1252 11.4589 9.22773L15.2089 10.7277C15.4225 10.8132 15.5625 11.02 15.5625 11.25V14.25C15.5625 14.797 15.3452 15.3216 14.9584 15.7084C14.5716 16.0952 14.047 16.3125 13.5 16.3125C13.4886 16.3125 13.4772 16.3122 13.4659 16.3115C10.4032 16.1253 7.51452 14.8248 5.34487 12.6551C3.17523 10.4855 1.87466 7.59681 1.68854 4.53412C1.68785 4.52276 1.6875 4.51138 1.6875 4.5C1.6875 3.95299 1.9048 3.42839 2.29159 3.04159Z" fill="#030712"/>
</svg>
