<svg width="29" height="28" viewBox="0 0 29 28" fill="none" xmlns="http://www.w3.org/2000/svg">
<g clip-path="url(#clip0_44_1154)">
<path d="M15.5996 17.7839L10.8393 27.6404C10.5964 28.1433 9.8451 28.1116 9.64856 27.5902L8.66596 24.9837C8.35285 24.1531 7.40168 23.7248 6.54143 24.0271L3.84182 24.9758C3.30181 25.1656 2.79369 24.6303 3.03656 24.1274L7.79686 14.2709L15.5996 17.7839Z" fill="url(#paint0_linear_44_1154)"/>
<path d="M6.14199 24.1675L6.54142 24.0271C7.40168 23.7248 8.35285 24.153 8.66596 24.9836L9.6485 27.5902C9.84504 28.1115 10.5964 28.1433 10.8393 27.6404L15.5996 17.7839L10.3636 15.4265L6.14199 24.1675Z" fill="url(#paint1_linear_44_1154)"/>
<path d="M15.5994 17.7838L14.5 20.0605L11.5031 26.2653L5.02515 20.0107L7.79715 14.2707L14.5 17.2889L15.5994 17.7838Z" fill="url(#paint2_linear_44_1154)"/>
<path d="M13.4004 17.7839L18.1607 27.6404C18.4036 28.1433 19.1549 28.1116 19.3514 27.5902L20.334 24.9837C20.6471 24.1531 21.5983 23.7248 22.4586 24.0271L25.1582 24.9758C25.6982 25.1656 26.2063 24.6303 25.9634 24.1274L21.2031 14.2709L13.4004 17.7839Z" fill="url(#paint3_linear_44_1154)"/>
<path d="M22.858 24.1675L22.4586 24.0271C21.5983 23.7248 20.6471 24.153 20.334 24.9836L19.3514 27.5902C19.1549 28.1115 18.4035 28.1433 18.1607 27.6404L13.4004 17.7839L18.6364 15.4265L22.858 24.1675Z" fill="url(#paint4_linear_44_1154)"/>
<path d="M23.9749 20.0107L17.4969 26.2653L14.5001 20.0605L13.4007 17.7838L14.5001 17.2889L21.2029 14.2707L23.9749 20.0107Z" fill="url(#paint5_linear_44_1154)"/>
<path d="M24.1639 10.5142L24.161 10.5164C23.6879 10.8675 23.5712 11.5093 23.8919 11.9951L23.892 11.9951C24.2991 12.6116 23.9894 13.4331 23.2671 13.6528L23.267 13.6528C22.6979 13.8258 22.36 14.39 22.4887 14.9525L22.4893 14.9551C22.6523 15.6683 22.0709 16.3369 21.3152 16.305L21.3132 16.305C20.7168 16.2799 20.1994 16.6993 20.1218 17.2709L20.1218 17.2714C20.0234 17.996 19.2401 18.4333 18.5406 18.1541L18.5386 18.1533C17.9876 17.9334 17.3538 18.156 17.0782 18.6665L17.0771 18.6685C16.7272 19.3164 15.8359 19.4676 15.2783 18.9735L15.2781 18.9734C14.8379 18.5834 14.162 18.5834 13.7218 18.9734L13.7216 18.9735C13.1639 19.4675 12.2727 19.3164 11.9228 18.6685L11.9217 18.6664C11.6461 18.156 11.0123 17.9333 10.4613 18.1533L10.4592 18.1541C9.7598 18.4333 8.97641 17.9959 8.87814 17.2714L8.87808 17.2708C8.80054 16.6992 8.28318 16.2798 7.6867 16.3049L7.68477 16.3049C6.92908 16.3367 6.3476 15.6681 6.51067 14.955L6.51129 14.9524C6.63992 14.3899 6.30206 13.8257 5.733 13.6527L5.73288 13.6526C5.0106 13.4331 4.70089 12.6115 5.10802 11.995C5.42883 11.5093 5.31204 10.8674 4.83898 10.5163L4.83603 10.5141C4.23661 10.0692 4.23661 9.19676 4.83603 8.75187L4.83898 8.74969C5.31204 8.39859 5.42878 7.75673 5.10802 7.27099L5.10797 7.27094C4.70083 6.65445 5.01054 5.83293 5.73283 5.6133L5.733 5.61325C6.30206 5.44027 6.63992 4.87606 6.51129 4.3136L6.51067 4.31092C6.3476 3.5978 6.92908 2.92924 7.68477 2.96102L7.6867 2.96107C8.28318 2.98617 8.80054 2.56672 8.87814 1.99512L8.87819 1.99463C8.97652 1.27008 9.75986 0.832742 10.4593 1.11192L10.4614 1.11274C11.0124 1.3327 11.6461 1.11001 11.9218 0.599555L11.9229 0.597586C12.2728 -0.0503515 13.164 -0.201508 13.7216 0.292539L13.7218 0.292703C14.162 0.682625 14.838 0.682625 15.2782 0.292703L15.2784 0.292539C15.836 -0.201453 16.7272 -0.0503515 17.0772 0.597586L17.0782 0.599609C17.3539 1.11006 17.9876 1.33275 18.5386 1.1128L18.5407 1.11198C19.2401 0.832797 20.0235 1.27013 20.1218 1.99469L20.1219 1.99523C20.1994 2.56683 20.7168 2.98628 21.3132 2.96118L21.3152 2.96112C22.0709 2.92935 22.6523 3.59791 22.4893 4.31103L22.4887 4.31366C22.36 4.87617 22.6979 5.44033 23.267 5.61336L23.2671 5.61341C23.9893 5.83298 24.2991 6.65455 23.8919 7.27105C23.5711 7.75678 23.6879 8.39865 24.161 8.74974L24.1639 8.75193C24.7633 9.19681 24.7633 10.0694 24.1639 10.5142Z" fill="url(#paint6_linear_44_1154)"/>
<path d="M14.5 17.7799C19.1601 17.7799 22.9379 14.1324 22.9379 9.63299C22.9379 5.13358 19.1601 1.48608 14.5 1.48608C9.8399 1.48608 6.06213 5.13358 6.06213 9.63299C6.06213 14.1324 9.8399 17.7799 14.5 17.7799Z" fill="url(#paint7_linear_44_1154)"/>
<path d="M4.83609 10.5141L4.83904 10.5163C5.3121 10.8674 5.42884 11.5093 5.10808 11.995C4.70095 12.6115 5.0106 13.4331 5.73294 13.6526L5.73305 13.6527C6.30212 13.8257 6.63998 14.3899 6.51135 14.9524L6.51073 14.955C6.34766 15.6681 6.92913 16.3367 7.68483 16.305L7.68676 16.3049C8.28324 16.2798 8.8006 16.6993 8.87814 17.2709L8.87819 17.2714C8.97652 17.996 9.75986 18.4333 10.4593 18.1541L10.4614 18.1533C11.0124 17.9333 11.6461 18.156 11.9218 18.6665L11.9229 18.6685C12.2728 19.3165 13.164 19.4676 13.7216 18.9736L13.7218 18.9734C14.162 18.5835 14.838 18.5835 15.2782 18.9734L15.2784 18.9736C15.836 19.4676 16.7272 19.3165 17.0772 18.6685L17.0782 18.6665C17.3539 18.1561 17.9876 17.9334 18.5386 18.1534L18.5407 18.1542C19.2401 18.4334 20.0235 17.996 20.1218 17.2715L20.1218 17.271C20.1994 16.6994 20.7167 16.2799 21.3132 16.305L21.3151 16.3051C22.0708 16.3369 22.6523 15.6683 22.4892 14.9552L22.4886 14.9525C22.36 14.39 22.6978 13.8258 23.2669 13.6528L23.2671 13.6528C23.9893 13.4332 24.2991 12.6117 23.8919 11.9952L23.8919 11.9951C23.5711 11.5094 23.6878 10.8675 24.1609 10.5164L24.1638 10.5142C24.5039 10.2618 24.6505 9.87192 24.6047 9.50043H4.39514C4.34938 9.87181 4.49602 10.2617 4.83609 10.5141Z" fill="url(#paint8_linear_44_1154)"/>
<path d="M24.164 10.5141L24.161 10.5163C23.688 10.8674 23.5712 11.5093 23.892 11.995C24.2991 12.6115 23.9895 13.4331 23.2671 13.6526L23.267 13.6527C22.6979 13.8257 22.3601 14.3899 22.4887 14.9524L22.4893 14.955C22.6524 15.6681 22.0709 16.3367 21.3152 16.305L21.3133 16.3049C20.7168 16.2798 20.1995 16.6993 20.1219 17.2709L20.1219 17.2714C20.0235 17.996 19.2402 18.4333 18.5408 18.1541L18.5387 18.1533C17.9877 17.9333 17.3539 18.156 17.0783 18.6665L17.0772 18.6685C16.7273 19.3165 15.836 19.4676 15.2784 18.9736L15.2782 18.9734C14.838 18.5835 14.1621 18.5835 13.7219 18.9734L13.7217 18.9736C13.164 19.4676 12.2728 19.3165 11.9229 18.6685L11.9218 18.6665C11.6462 18.1561 11.0124 17.9334 10.4614 18.1534L10.4594 18.1542C9.75997 18.4334 8.97658 17.996 8.8783 17.2715L8.87825 17.271C8.80071 16.6994 8.28335 16.2799 7.68681 16.305L7.68494 16.3051C6.92924 16.3369 6.34777 15.6683 6.51084 14.9552L6.51146 14.9525C6.64009 14.39 6.30223 13.8258 5.73316 13.6528L5.73299 13.6528C5.01071 13.4332 4.701 12.6117 5.10813 11.9952L5.10819 11.9951C5.429 11.5094 5.31221 10.8675 4.83915 10.5164L4.83626 10.5142C4.49619 10.2618 4.34955 9.87192 4.39531 9.50043H24.605C24.6506 9.87181 24.504 10.2617 24.164 10.5141Z" fill="url(#paint9_linear_44_1154)"/>
<path d="M15.2782 18.9733L15.2784 18.9734C15.836 19.4674 16.7272 19.3163 17.0771 18.6684L17.0782 18.6664C17.3539 18.156 17.9876 17.9333 18.5386 18.1532L18.5407 18.154C19.2401 18.4332 20.0235 17.9959 20.1218 17.2713L20.1218 17.2708C20.1993 16.6992 20.7167 16.2798 21.3132 16.3049L21.3151 16.3049C22.0708 16.3367 22.6523 15.6682 22.4892 14.955L22.4886 14.9524C22.36 14.3898 22.6978 13.8257 23.2669 13.6527L23.2671 13.6527C23.9893 13.4331 24.2991 12.6115 23.8919 11.995L23.8919 11.995C23.5711 11.5092 23.6878 10.8674 24.1609 10.5163L24.1638 10.5141C24.7632 10.0692 24.7632 9.19672 24.1638 8.75184L24.1609 8.74965C23.6878 8.39856 23.5711 7.75669 23.8918 7.27096C24.2989 6.65446 23.9893 5.83289 23.2669 5.61332L23.2668 5.61327C22.6977 5.44029 22.3599 4.87608 22.4885 4.31357L22.4892 4.31094C22.6522 3.59782 22.0708 2.92921 21.3151 2.96098L21.3132 2.96103C20.7167 2.98614 20.1993 2.56668 20.1218 1.99509L20.1217 1.99454C20.0234 1.26999 19.24 0.832651 18.5406 1.11183L18.5385 1.11265C17.9875 1.3326 17.3538 1.10992 17.0781 0.599464L17.077 0.59744C16.7271 -0.0504972 15.8359 -0.201599 15.2782 0.292393L15.2781 0.292557C15.058 0.487518 14.779 0.585026 14.4999 0.585026V18.6806C14.7791 18.6808 15.0581 18.7783 15.2782 18.9733Z" fill="url(#paint10_linear_44_1154)"/>
<path d="M14.5 17.4112C18.9492 17.4112 22.556 13.9288 22.556 9.633C22.556 5.33722 18.9492 1.8548 14.5 1.8548C10.0508 1.8548 6.444 5.33722 6.444 9.633C6.444 13.9288 10.0508 17.4112 14.5 17.4112Z" fill="url(#paint11_linear_44_1154)"/>
<path d="M14.5 15.941C18.1082 15.941 21.0333 13.1168 21.0333 9.633C21.0333 6.14919 18.1082 3.32501 14.5 3.32501C10.8918 3.32501 7.96673 6.14919 7.96673 9.633C7.96673 13.1168 10.8918 15.941 14.5 15.941Z" fill="url(#paint12_linear_44_1154)"/>
<path d="M14.6089 5.20416C14.4661 5.20416 14.3362 5.22915 14.2324 5.29194L12.5185 6.2948C12.2587 6.4453 12.1418 6.69598 12.1418 6.95925C12.1418 7.34791 12.4016 7.73658 12.7781 7.73658C12.869 7.73658 12.9859 7.71148 13.1027 7.63617L13.4792 7.41053V13.7916C13.4792 14.1926 13.9855 14.3932 14.492 14.3932C14.9983 14.3932 15.5047 14.1926 15.5047 13.7916V5.81847C15.5047 5.44233 15.0244 5.20416 14.6089 5.20416Z" fill="url(#paint13_linear_44_1154)"/>
<path d="M19.1829 6.73488C19.2981 6.73488 19.4132 6.61364 19.4132 6.44186C19.4132 6.28021 19.3033 6.15393 19.1882 6.15393H18.8219L18.937 5.59317C18.9318 5.38103 18.7487 5.30524 18.5655 5.30524C18.4085 5.30524 18.2463 5.36589 18.2254 5.46689L18.0894 6.15399H17.5505L17.6604 5.59322C17.6604 5.38109 17.4773 5.30529 17.2941 5.30529C17.1371 5.30529 16.9749 5.36594 16.954 5.46695L16.818 6.15404H16.3314C16.1954 6.15404 16.1064 6.28535 16.1064 6.45209C16.1064 6.62386 16.1901 6.73499 16.3262 6.73499H16.6977L16.5878 7.28055H16.1064C15.9756 7.28055 15.8814 7.41191 15.8814 7.57865C15.8814 7.75042 15.9704 7.86155 16.1012 7.86155H16.4674L16.3523 8.47788C16.3523 8.66988 16.5773 8.76581 16.75 8.76581C16.8755 8.76581 17.0429 8.69006 17.0639 8.59409L17.2104 7.86155H17.7389L17.6186 8.47788C17.6186 8.66988 17.8488 8.76581 18.0215 8.76581C18.1522 8.76581 18.3145 8.69006 18.3354 8.59409L18.4819 7.86155H18.9581C19.0732 7.86155 19.1935 7.74534 19.1935 7.56853C19.1935 7.40688 19.0784 7.2806 18.9633 7.2806H18.597L18.7121 6.73504L19.1829 6.73488ZM17.8592 7.28044H17.3255L17.4353 6.73488H17.9691L17.8592 7.28044Z" fill="url(#paint14_linear_44_1154)"/>
<path d="M6.444 9.63302C6.444 13.9288 10.0508 17.4112 14.5 17.4112C18.9492 17.4112 22.556 13.9288 22.556 9.63302C22.556 9.42652 22.5475 9.22198 22.5311 9.01953H6.46887C6.4525 9.22198 6.444 9.42657 6.444 9.63302Z" fill="url(#paint15_linear_44_1154)"/>
<path d="M8.80354 15.133C11.9496 18.1706 17.0504 18.1706 20.1964 15.133C23.3425 12.0955 23.3425 7.17057 20.1964 4.13295C20.0452 3.98694 19.8894 3.84814 19.7295 3.71613L8.37188 14.6822C8.50856 14.8366 8.65231 14.987 8.80354 15.133Z" fill="url(#paint16_linear_44_1154)"/>
</g>
<defs>
<linearGradient id="paint0_linear_44_1154" x1="7.26856" y1="18.2603" x2="11.2902" y2="24.5191" gradientUnits="userSpaceOnUse">
<stop stop-color="#FE0364"/>
<stop offset="0.2057" stop-color="#F3075E"/>
<stop offset="0.563" stop-color="#D7134F"/>
<stop offset="1" stop-color="#AC2538"/>
</linearGradient>
<linearGradient id="paint1_linear_44_1154" x1="11.2843" y1="22.1934" x2="13.4631" y2="23.247" gradientUnits="userSpaceOnUse">
<stop stop-color="#972437" stop-opacity="0"/>
<stop offset="0.229" stop-color="#902333" stop-opacity="0.072"/>
<stop offset="0.4928" stop-color="#7E232A" stop-opacity="0.283"/>
<stop offset="0.7726" stop-color="#61221B" stop-opacity="0.632"/>
<stop offset="1" stop-color="#42210B"/>
</linearGradient>
<linearGradient id="paint2_linear_44_1154" x1="9.81978" y1="19.935" x2="11.1435" y2="17.1472" gradientUnits="userSpaceOnUse">
<stop stop-color="#972437" stop-opacity="0"/>
<stop offset="0.229" stop-color="#902333" stop-opacity="0.072"/>
<stop offset="0.4928" stop-color="#7E232A" stop-opacity="0.283"/>
<stop offset="0.7726" stop-color="#61221B" stop-opacity="0.632"/>
<stop offset="1" stop-color="#42210B"/>
</linearGradient>
<linearGradient id="paint3_linear_44_1154" x1="21.731" y1="18.2585" x2="17.7094" y2="24.5173" gradientUnits="userSpaceOnUse">
<stop stop-color="#B3DAFE"/>
<stop offset="1" stop-color="#0182FC"/>
</linearGradient>
<linearGradient id="paint4_linear_44_1154" x1="17.7153" y1="22.1915" x2="15.5364" y2="23.2451" gradientUnits="userSpaceOnUse">
<stop stop-color="#0182FC" stop-opacity="0"/>
<stop offset="0.2315" stop-color="#0180F7" stop-opacity="0.032"/>
<stop offset="0.4221" stop-color="#017AE8" stop-opacity="0.131"/>
<stop offset="0.5982" stop-color="#0171CF" stop-opacity="0.298"/>
<stop offset="0.7656" stop-color="#0165AC" stop-opacity="0.533"/>
<stop offset="0.9253" stop-color="#01557F" stop-opacity="0.833"/>
<stop offset="1" stop-color="#024C67"/>
</linearGradient>
<linearGradient id="paint5_linear_44_1154" x1="19.2094" y1="19.9837" x2="17.7648" y2="16.8468" gradientUnits="userSpaceOnUse">
<stop stop-color="#0182FC" stop-opacity="0"/>
<stop offset="0.2315" stop-color="#0180F7" stop-opacity="0.032"/>
<stop offset="0.4221" stop-color="#017AE8" stop-opacity="0.131"/>
<stop offset="0.5982" stop-color="#0171CF" stop-opacity="0.298"/>
<stop offset="0.7656" stop-color="#0165AC" stop-opacity="0.533"/>
<stop offset="0.9253" stop-color="#01557F" stop-opacity="0.833"/>
<stop offset="1" stop-color="#024C67"/>
</linearGradient>
<linearGradient id="paint6_linear_44_1154" x1="9.4817" y1="4.78785" x2="19.243" y2="14.8977" gradientUnits="userSpaceOnUse">
<stop stop-color="#FEE45A"/>
<stop offset="1" stop-color="#FEA613"/>
</linearGradient>
<linearGradient id="paint7_linear_44_1154" x1="25.844" y1="20.5859" x2="4.4235" y2="-1.59964" gradientUnits="userSpaceOnUse">
<stop stop-color="#FEE45A"/>
<stop offset="1" stop-color="#FEA613"/>
</linearGradient>
<linearGradient id="paint8_linear_44_1154" x1="12.8229" y1="14.6266" x2="11.0504" y2="19.3099" gradientUnits="userSpaceOnUse">
<stop stop-color="#FEA613" stop-opacity="0"/>
<stop offset="0.102" stop-color="#FDA314" stop-opacity="0.024"/>
<stop offset="0.2333" stop-color="#FC9C17" stop-opacity="0.093"/>
<stop offset="0.3805" stop-color="#F9911D" stop-opacity="0.207"/>
<stop offset="0.5394" stop-color="#F68224" stop-opacity="0.365"/>
<stop offset="0.7077" stop-color="#F26E2E" stop-opacity="0.569"/>
<stop offset="0.8811" stop-color="#EC563A" stop-opacity="0.813"/>
<stop offset="1" stop-color="#E94444"/>
</linearGradient>
<linearGradient id="paint9_linear_44_1154" x1="16.1771" y1="14.6266" x2="17.9496" y2="19.3099" gradientUnits="userSpaceOnUse">
<stop stop-color="#FEA613" stop-opacity="0"/>
<stop offset="0.102" stop-color="#FDA314" stop-opacity="0.024"/>
<stop offset="0.2333" stop-color="#FC9C17" stop-opacity="0.093"/>
<stop offset="0.3805" stop-color="#F9911D" stop-opacity="0.207"/>
<stop offset="0.5394" stop-color="#F68224" stop-opacity="0.365"/>
<stop offset="0.7077" stop-color="#F26E2E" stop-opacity="0.569"/>
<stop offset="0.8811" stop-color="#EC563A" stop-opacity="0.813"/>
<stop offset="1" stop-color="#E94444"/>
</linearGradient>
<linearGradient id="paint10_linear_44_1154" x1="19.7445" y1="10.569" x2="24.9881" y2="11.9961" gradientUnits="userSpaceOnUse">
<stop stop-color="#FEA613" stop-opacity="0"/>
<stop offset="0.102" stop-color="#FDA314" stop-opacity="0.024"/>
<stop offset="0.2333" stop-color="#FC9C17" stop-opacity="0.093"/>
<stop offset="0.3805" stop-color="#F9911D" stop-opacity="0.207"/>
<stop offset="0.5394" stop-color="#F68224" stop-opacity="0.365"/>
<stop offset="0.7077" stop-color="#F26E2E" stop-opacity="0.569"/>
<stop offset="0.8811" stop-color="#EC563A" stop-opacity="0.813"/>
<stop offset="1" stop-color="#E94444"/>
</linearGradient>
<linearGradient id="paint11_linear_44_1154" x1="9.97764" y1="5.26659" x2="19.7123" y2="15.3489" gradientUnits="userSpaceOnUse">
<stop stop-color="#FEE45A"/>
<stop offset="1" stop-color="#FEA613"/>
</linearGradient>
<linearGradient id="paint12_linear_44_1154" x1="16.1151" y1="11.1924" x2="7.28119" y2="2.04299" gradientUnits="userSpaceOnUse">
<stop stop-color="#FEE45A"/>
<stop offset="1" stop-color="#FEA613"/>
</linearGradient>
<linearGradient id="paint13_linear_44_1154" x1="5.76097" y1="5.09714" x2="20.7582" y2="13.7608" gradientUnits="userSpaceOnUse">
<stop stop-color="#FEA613" stop-opacity="0"/>
<stop offset="0.102" stop-color="#FDA314" stop-opacity="0.024"/>
<stop offset="0.2333" stop-color="#FC9C17" stop-opacity="0.093"/>
<stop offset="0.3805" stop-color="#F9911D" stop-opacity="0.207"/>
<stop offset="0.5394" stop-color="#F68224" stop-opacity="0.365"/>
<stop offset="0.7077" stop-color="#F26E2E" stop-opacity="0.569"/>
<stop offset="0.8811" stop-color="#EC563A" stop-opacity="0.813"/>
<stop offset="1" stop-color="#E94444"/>
</linearGradient>
<linearGradient id="paint14_linear_44_1154" x1="7.73026" y1="1.68815" x2="22.7275" y2="10.3518" gradientUnits="userSpaceOnUse">
<stop stop-color="#FEA613" stop-opacity="0"/>
<stop offset="0.102" stop-color="#FDA314" stop-opacity="0.024"/>
<stop offset="0.2333" stop-color="#FC9C17" stop-opacity="0.093"/>
<stop offset="0.3805" stop-color="#F9911D" stop-opacity="0.207"/>
<stop offset="0.5394" stop-color="#F68224" stop-opacity="0.365"/>
<stop offset="0.7077" stop-color="#F26E2E" stop-opacity="0.569"/>
<stop offset="0.8811" stop-color="#EC563A" stop-opacity="0.813"/>
<stop offset="1" stop-color="#E94444"/>
</linearGradient>
<linearGradient id="paint15_linear_44_1154" x1="14.5" y1="12.3135" x2="14.5" y2="17.4467" gradientUnits="userSpaceOnUse">
<stop stop-color="#FEA613" stop-opacity="0"/>
<stop offset="0.102" stop-color="#FDA314" stop-opacity="0.024"/>
<stop offset="0.2333" stop-color="#FC9C17" stop-opacity="0.093"/>
<stop offset="0.3805" stop-color="#F9911D" stop-opacity="0.207"/>
<stop offset="0.5394" stop-color="#F68224" stop-opacity="0.365"/>
<stop offset="0.7077" stop-color="#F26E2E" stop-opacity="0.569"/>
<stop offset="0.8811" stop-color="#EC563A" stop-opacity="0.813"/>
<stop offset="1" stop-color="#E94444"/>
</linearGradient>
<linearGradient id="paint16_linear_44_1154" x1="16.883" y1="11.3186" x2="20.8143" y2="14.2743" gradientUnits="userSpaceOnUse">
<stop stop-color="#FEA613" stop-opacity="0"/>
<stop offset="0.102" stop-color="#FDA314" stop-opacity="0.024"/>
<stop offset="0.2333" stop-color="#FC9C17" stop-opacity="0.093"/>
<stop offset="0.3805" stop-color="#F9911D" stop-opacity="0.207"/>
<stop offset="0.5394" stop-color="#F68224" stop-opacity="0.365"/>
<stop offset="0.7077" stop-color="#F26E2E" stop-opacity="0.569"/>
<stop offset="0.8811" stop-color="#EC563A" stop-opacity="0.813"/>
<stop offset="1" stop-color="#E94444"/>
</linearGradient>
<clipPath id="clip0_44_1154">
<rect width="29" height="28" fill="white"/>
</clipPath>
</defs>
</svg>
