<svg width="76" height="76" viewBox="0 0 76 76" fill="none" xmlns="http://www.w3.org/2000/svg">
<rect x="4" y="4" width="68" height="68" rx="34" fill="#DFE2FF"/>
<rect x="4" y="4" width="68" height="68" rx="34" stroke="#F4F5FF" stroke-width="8"/>
<path d="M39.25 31.75L37.8556 28.9611C37.4543 28.1585 37.2536 27.7572 36.9542 27.464C36.6895 27.2047 36.3704 27.0075 36.0201 26.8866C35.624 26.75 35.1753 26.75 34.2779 26.75H29.5C28.0999 26.75 27.3998 26.75 26.865 27.0225C26.3946 27.2622 26.0122 27.6446 25.7725 28.115C25.5 28.6498 25.5 29.3499 25.5 30.75V31.75M25.5 31.75H44.5C46.6002 31.75 47.6503 31.75 48.4525 32.1587C49.1581 32.5183 49.7317 33.0919 50.0913 33.7975C50.5 34.5997 50.5 35.6498 50.5 37.75V43.25C50.5 45.3502 50.5 46.4003 50.0913 47.2025C49.7317 47.9081 49.1581 48.4817 48.4525 48.8413C47.6503 49.25 46.6002 49.25 44.5 49.25H31.5C29.3998 49.25 28.3497 49.25 27.5475 48.8413C26.8419 48.4817 26.2683 47.9081 25.9087 47.2025C25.5 46.4003 25.5 45.3502 25.5 43.25V31.75ZM38 44.25V36.75M34.25 40.5H41.75" stroke="#5B6CFF" stroke-width="2" stroke-linecap="round" stroke-linejoin="round"/>
</svg>
