<svg width="76" height="76" viewBox="0 0 76 76" fill="none" xmlns="http://www.w3.org/2000/svg">
<rect x="4" y="4" width="68" height="68" rx="34" fill="#DFE2FF"/>
<rect x="4" y="4" width="68" height="68" rx="34" stroke="#F4F5FF" stroke-width="8"/>
<path d="M42.1404 35.5C43.8508 36.0329 45.4535 36.8989 46.8505 38.0625M51.2254 33.625C47.5724 30.4049 42.87 28.6283 38.0004 28.6283C37.2441 28.6283 36.4919 28.6711 35.747 28.7556M33.6627 42.5125C34.9317 41.611 36.4498 41.1266 38.0065 41.1266C39.5631 41.1266 41.0812 41.611 42.3502 42.5125M38.0005 47.375H38.013M24.4922 33.876C26.1592 32.3484 28.086 31.0997 30.1986 30.2038M28.9154 38.3037C30.6622 36.765 32.8026 35.6627 35.1663 35.1674M42.6234 42.7189C41.3495 41.7203 39.7445 41.125 38.0003 41.125C36.2299 41.125 34.6026 41.7385 33.3197 42.7645M26.7505 26.75L49.2505 49.25" stroke="#5B6CFF" stroke-width="2" stroke-linecap="round" stroke-linejoin="round"/>
</svg>
