<svg width="76" height="76" viewBox="0 0 76 76" fill="none" xmlns="http://www.w3.org/2000/svg">
<rect x="4" y="4" width="68" height="68" rx="34" fill="#DFE2FF"/>
<rect x="4" y="4" width="68" height="68" rx="34" stroke="#F4F5FF" stroke-width="8"/>
<path d="M26.3584 42.5564L28.7437 41.1794C28.8729 41.1048 29.0245 41.0789 29.1711 41.1064L33.8643 41.9847C34.2499 42.0569 34.606 41.76 34.6042 41.3676L34.586 37.2556C34.5855 37.1438 34.6149 37.034 34.6713 36.9376L37.0397 32.8828C37.1629 32.6717 37.1519 32.4082 37.0114 32.2083L33.0237 26.5321M46.7503 29.0738C39.8753 32.3751 43.6251 36.7501 44.8753 37.3751C47.2216 38.548 50.4846 38.625 50.4846 38.625C50.4948 38.4179 50.5 38.2096 50.5 38C50.5 31.0964 44.9036 25.5 38 25.5C31.0964 25.5 25.5 31.0964 25.5 38C25.5 44.9036 31.0964 50.5 38 50.5C38.2096 50.5 38.418 50.4948 38.625 50.4846M43.9472 50.4247L39.9888 39.9888L50.4247 43.9472L45.797 45.797L43.9472 50.4247Z" stroke="#5B6CFF" stroke-width="2" stroke-linecap="round" stroke-linejoin="round"/>
</svg>
