<svg width="76" height="76" viewBox="0 0 76 76" fill="none" xmlns="http://www.w3.org/2000/svg">
<rect x="4" y="4" width="68" height="68" rx="34" fill="#DFE2FF"/>
<rect x="4" y="4" width="68" height="68" rx="34" stroke="#F4F5FF" stroke-width="8"/>
<path d="M48 36.125V31.5C48 29.3998 48 28.3497 47.5913 27.5475C47.2317 26.8419 46.6581 26.2683 45.9525 25.9087C45.1503 25.5 44.1002 25.5 42 25.5H34C31.8998 25.5 30.8497 25.5 30.0475 25.9087C29.3419 26.2683 28.7683 26.8419 28.4087 27.5475C28 28.3497 28 29.3998 28 31.5V44.5C28 46.6002 28 47.6503 28.4087 48.4525C28.7683 49.1581 29.3419 49.7317 30.0475 50.0913C30.8497 50.5 31.8998 50.5 34 50.5H38M40.5 36.75H33M35.5 41.75H33M43 31.75H33M45.5 49.25V41.75M41.75 45.5H49.25" stroke="#5B6CFF" stroke-width="2" stroke-linecap="round" stroke-linejoin="round"/>
</svg>
